<svg xmlns="http://www.w3.org/2000/svg" width="29" height="20" viewBox="0 0 29 20" fill="none">
<path d="M17.6753 4.75928H11.8882V15.2419H17.6753V4.75928Z" fill="#FF5F00"/>
<path d="M12.2545 10.0002C12.2536 8.9906 12.4806 7.99406 12.9182 7.08599C13.3559 6.17792 13.9928 5.38212 14.7806 4.75883C13.805 3.9858 12.6332 3.50507 11.3993 3.37157C10.1654 3.23808 8.91907 3.4572 7.80286 4.00392C6.68665 4.55063 5.74556 5.40287 5.08715 6.46322C4.42874 7.52356 4.07959 8.74924 4.07959 10.0002C4.07959 11.2511 4.42874 12.4767 5.08715 13.5371C5.74556 14.5974 6.68665 15.4497 7.80286 15.9964C8.91907 16.5431 10.1654 16.7622 11.3993 16.6287C12.6332 16.4952 13.805 16.0145 14.7806 15.2415C13.9928 14.6182 13.3559 13.8224 12.9182 12.9143C12.4806 12.0062 12.2536 11.0097 12.2545 10.0002Z" fill="#EB001B"/>
<path d="M25.4825 10.0002C25.4825 11.251 25.1334 12.4767 24.475 13.5371C23.8167 14.5974 22.8756 15.4497 21.7594 15.9964C20.6432 16.5431 19.3969 16.7622 18.163 16.6287C16.9291 16.4952 15.7574 16.0145 14.7817 15.2415C15.5689 14.6175 16.2053 13.8216 16.6429 12.9137C17.0805 12.0058 17.3078 11.0095 17.3078 10.0002C17.3078 8.99076 17.0805 7.99454 16.6429 7.08661C16.2053 6.17868 15.5689 5.38275 14.7817 4.75883C15.7574 3.9858 16.9291 3.50506 18.163 3.37157C19.3969 3.23808 20.6432 3.45721 21.7594 4.00393C22.8756 4.55065 23.8167 5.40289 24.475 6.46324C25.1334 7.52359 25.4825 8.74926 25.4825 10.0002Z" fill="#F79E1B"/>
<path d="M24.8486 14.1323V13.9177H24.9345V13.874H24.7158V13.9177H24.8017V14.1323H24.8486ZM25.2731 14.1323V13.8735H25.2061L25.129 14.0515L25.0519 13.8735H24.9848V14.1323H25.0321V13.9371L25.1044 14.1054H25.1535L25.2258 13.9367V14.1323H25.2731Z" fill="#F79E1B"/>
</svg>