<svg xmlns="http://www.w3.org/2000/svg" width="50" height="14" viewBox="0 0 50 14" fill="none">
<path fill-rule="evenodd" clip-rule="evenodd" d="M8.57045 1.51851C8.95568 1.51632 10.1006 1.41811 10.5855 2.97688C10.9122 4.02688 11.4325 5.74683 12.1466 8.13672H12.4374C13.2032 5.61713 13.7292 3.89718 14.0155 2.97688C14.5055 1.40188 15.7305 1.51854 16.2205 1.51854L20.001 1.51855V12.7185H16.1478V6.11819H15.8894L13.7415 12.7185H10.8425L8.69454 6.1133H8.43616V12.7185H4.58301V1.51855L8.57045 1.51851ZM25.534 1.51855V8.12379H25.8414L28.4542 2.69235C28.9614 1.61147 30.0423 1.51855 30.0423 1.51855H33.771V12.7185H29.8374V6.1133H29.53L26.9685 11.5447C26.4613 12.6207 25.3291 12.7185 25.3291 12.7185H21.6004V1.51855H25.534ZM47.3674 6.84086C46.8187 8.3217 45.0956 9.38224 43.1878 9.38224H39.0627V12.7185H35.322V6.84086H47.3674Z" fill="#0F754E"/>
<path fill-rule="evenodd" clip-rule="evenodd" d="M43.3684 1.51855H35.126C35.3221 4.01205 37.5768 6.14665 39.9109 6.14665H47.6274C48.0727 4.07426 46.5398 1.51855 43.3684 1.51855Z" fill="url(#paint0_linear)"/>
<defs>
<linearGradient id="paint0_linear" x1="47.7031" y1="4.42983" x2="35.126" y2="4.42983" gradientUnits="userSpaceOnUse">
<stop stop-color="#1F5CD7"/>
<stop offset="1" stop-color="#02AEFF"/>
</linearGradient>
</defs>
</svg>