<svg xmlns="http://www.w3.org/2000/svg" width="41" height="12" viewBox="0 0 41 12" fill="none">
<g clip-path="url(#clip0)">
<path fill-rule="evenodd" clip-rule="evenodd" d="M21.3348 3.84993C21.3118 5.51083 22.9498 6.43769 24.1837 6.98876C25.4515 7.55424 25.8773 7.91682 25.8724 8.42239C25.8628 9.1963 24.8611 9.53775 23.9236 9.55104C22.288 9.5743 21.3372 9.14636 20.5811 8.82264L19.992 11.3494C20.7505 11.6699 22.155 11.9493 23.6115 11.9615C27.0302 11.9615 29.2668 10.4148 29.279 8.01661C29.2923 4.97313 24.6857 4.80458 24.7172 3.44415C24.728 3.03172 25.1575 2.5915 26.0986 2.47953C26.5644 2.42304 27.8503 2.37975 29.308 2.99507L29.8802 0.550394C29.0963 0.288702 28.0886 0.0380859 26.8342 0.0380859C23.6163 0.0380859 21.353 1.60584 21.3348 3.84993ZM35.3784 0.248733C34.7541 0.248733 34.2279 0.582517 33.9932 1.09473L29.1096 11.7818H32.5258L33.2057 10.0599H37.3804L37.7748 11.7818H40.7857L38.1582 0.248733H35.3784ZM35.8562 3.3643L36.842 7.69501H34.142L35.8562 3.3643ZM17.1928 0.248733L14.5 11.7818H17.7553L20.4469 0.248733H17.1928ZM12.3769 0.248733L8.9885 8.09858L7.61788 1.42399C7.45704 0.678979 6.82194 0.248733 6.11663 0.248733H0.577449L0.5 0.583625C1.63716 0.809779 2.92913 1.17458 3.71178 1.56486C4.19078 1.80319 4.32755 2.01162 4.48476 2.57821L7.08077 11.7818H10.5213L15.7956 0.248733H12.3769Z" fill="#1A1F71"/>
</g>
<defs>
<clipPath id="clip0">
<rect width="40.2857" height="12" fill="white" transform="translate(0.5)"/>
</clipPath>
</defs>
</svg>