<svg xmlns="http://www.w3.org/2000/svg" width="80" height="80" viewBox="0 0 80 80" fill="none">
<path d="M16.666 23.3333H26.666V16.6667L33.3327 10H43.3327L49.9993 16.6667V23.3333H59.9993C62.6515 23.3333 65.1951 24.3869 67.0704 26.2623C68.9458 28.1376 69.9993 30.6812 69.9993 33.3333V60C69.9993 62.6522 68.9458 65.1957 67.0704 67.0711C65.1951 68.9464 62.6515 70 59.9993 70H16.666C14.0139 70 11.4703 68.9464 9.59495 67.0711C7.71958 65.1957 6.66602 62.6522 6.66602 60V33.3333C6.66602 30.6812 7.71958 28.1376 9.59495 26.2623C11.4703 24.3869 14.0139 23.3333 16.666 23.3333V23.3333ZM34.7127 13.3333L29.9993 18.0467V23.3333H46.666V18.0467L41.9527 13.3333H34.7127ZM16.666 26.6667C14.8979 26.6667 13.2022 27.369 11.952 28.6193C10.7017 29.8695 9.99935 31.5652 9.99935 33.3333V60C9.99935 61.7681 10.7017 63.4638 11.952 64.714C13.2022 65.9643 14.8979 66.6667 16.666 66.6667H59.9993C61.7675 66.6667 63.4631 65.9643 64.7134 64.714C65.9636 63.4638 66.666 61.7681 66.666 60V33.3333C66.666 31.5652 65.9636 29.8695 64.7134 28.6193C63.4631 27.369 61.7675 26.6667 59.9993 26.6667H16.666Z" fill="#3D5AFE"/>
</svg>