<svg xmlns="http://www.w3.org/2000/svg" width="80" height="80" viewBox="0 0 80 80" fill="none">
<path fill-rule="evenodd" clip-rule="evenodd" d="M40 75C49.2826 75 58.185 71.3125 64.7487 64.7487C71.3125 58.185 75 49.2826 75 40C75 30.7174 71.3125 21.815 64.7487 15.2513C58.185 8.68749 49.2826 5 40 5C30.7174 5 21.815 8.68749 15.2513 15.2513C8.68749 21.815 5 30.7174 5 40C5 49.2826 8.68749 58.185 15.2513 64.7487C21.815 71.3125 30.7174 75 40 75V75ZM40 80C50.6087 80 60.7828 75.7857 68.2843 68.2843C75.7857 60.7828 80 50.6087 80 40C80 29.3913 75.7857 19.2172 68.2843 11.7157C60.7828 4.21427 50.6087 0 40 0C29.3913 0 19.2172 4.21427 11.7157 11.7157C4.21427 19.2172 0 29.3913 0 40C0 50.6087 4.21427 60.7828 11.7157 68.2843C19.2172 75.7857 29.3913 80 40 80V80Z" fill="#3D5AFE"/>
<path fill-rule="evenodd" clip-rule="evenodd" d="M40 65C46.6304 65 52.9893 62.3661 57.6777 57.6777C62.3661 52.9893 65 46.6304 65 40C65 33.3696 62.3661 27.0107 57.6777 22.3223C52.9893 17.6339 46.6304 15 40 15C33.3696 15 27.0107 17.6339 22.3223 22.3223C17.6339 27.0107 15 33.3696 15 40C15 46.6304 17.6339 52.9893 22.3223 57.6777C27.0107 62.3661 33.3696 65 40 65V65ZM40 70C43.9397 70 47.8407 69.224 51.4805 67.7164C55.1203 66.2087 58.4274 63.999 61.2132 61.2132C63.999 58.4274 66.2087 55.1203 67.7164 51.4805C69.224 47.8407 70 43.9397 70 40C70 36.0603 69.224 32.1593 67.7164 28.5195C66.2087 24.8797 63.999 21.5726 61.2132 18.7868C58.4274 16.001 55.1203 13.7913 51.4805 12.2836C47.8407 10.776 43.9397 10 40 10C32.0435 10 24.4129 13.1607 18.7868 18.7868C13.1607 24.4129 10 32.0435 10 40C10 47.9565 13.1607 55.5871 18.7868 61.2132C24.4129 66.8393 32.0435 70 40 70V70Z" fill="#3D5AFE"/>
<path fill-rule="evenodd" clip-rule="evenodd" d="M40 55C43.9782 55 47.7936 53.4196 50.6066 50.6066C53.4196 47.7936 55 43.9782 55 40C55 36.0218 53.4196 32.2064 50.6066 29.3934C47.7936 26.5804 43.9782 25 40 25C36.0218 25 32.2064 26.5804 29.3934 29.3934C26.5804 32.2064 25 36.0218 25 40C25 43.9782 26.5804 47.7936 29.3934 50.6066C32.2064 53.4196 36.0218 55 40 55V55ZM40 60C45.3043 60 50.3914 57.8929 54.1421 54.1421C57.8929 50.3914 60 45.3043 60 40C60 34.6957 57.8929 29.6086 54.1421 25.8579C50.3914 22.1071 45.3043 20 40 20C34.6957 20 29.6086 22.1071 25.8579 25.8579C22.1071 29.6086 20 34.6957 20 40C20 45.3043 22.1071 50.3914 25.8579 54.1421C29.6086 57.8929 34.6957 60 40 60V60Z" fill="#3D5AFE"/>
<path d="M47.5 40C47.5 41.9891 46.7098 43.8968 45.3033 45.3033C43.8968 46.7098 41.9891 47.5 40 47.5C38.0109 47.5 36.1032 46.7098 34.6967 45.3033C33.2902 43.8968 32.5 41.9891 32.5 40C32.5 38.0109 33.2902 36.1032 34.6967 34.6967C36.1032 33.2902 38.0109 32.5 40 32.5C41.9891 32.5 43.8968 33.2902 45.3033 34.6967C46.7098 36.1032 47.5 38.0109 47.5 40V40Z" fill="#3D5AFE"/>
</svg>