<svg xmlns="http://www.w3.org/2000/svg" width="80" height="80" viewBox="0 0 80 80" fill="none">
<path d="M36.666 13.3333H13.3327C11.5646 13.3333 9.86888 14.0356 8.61864 15.2859C7.36839 16.5361 6.66602 18.2318 6.66602 19.9999V66.6666C6.66602 68.4347 7.36839 70.1304 8.61864 71.3806C9.86888 72.6309 11.5646 73.3333 13.3327 73.3333H59.9993C61.7675 73.3333 63.4631 72.6309 64.7134 71.3806C65.9636 70.1304 66.666 68.4347 66.666 66.6666V43.3333" stroke="#3D5AFE" stroke-width="3" stroke-linecap="round" stroke-linejoin="round"/>
<path d="M61.666 8.33327C62.9921 7.00719 64.7907 6.26221 66.666 6.26221C68.5414 6.26221 70.3399 7.00719 71.666 8.33327C72.9921 9.65936 73.7371 11.4579 73.7371 13.3333C73.7371 15.2086 72.9921 17.0072 71.666 18.3333L39.9993 49.9999L26.666 53.3333L29.9993 39.9999L61.666 8.33327Z" stroke="#3D5AFE" stroke-width="3" stroke-linecap="round" stroke-linejoin="round"/>
</svg>