<svg xmlns="http://www.w3.org/2000/svg" width="80" height="80" viewBox="0 0 80 80" fill="none">
<path d="M58.6959 73.9837H66.5V51.9905C66.2565 46.6339 60.0801 43.2827 52.0431 41.765M21.8041 73.9837H14V51.9905C14.2439 47.1132 20.4393 43.7447 28.4948 42.058M21.8041 64.0513V76.1121H58.6959V64.0513M48.7635 56.2472H55.1487M35.2838 41.3486L43.7973 49.8621L52.0431 41.765M35.2838 41.3486C32.8493 41.5539 30.7302 41.5899 28.4948 42.058M35.2838 41.3486L35.9932 37.0918M45.2162 41.3486C47.5739 41.4946 49.8761 41.3558 52.0431 41.765M45.2162 41.3486L36.7027 49.8621L28.4948 42.058M45.2162 41.3486L44.5068 37.0918M30.3176 29.2877C31.7365 40.6391 49.473 39.2202 50.1824 29.2877M30.3176 29.2877L25.3514 28.5783V24.3215H27.8345M30.3176 29.2877V24.3215M50.1824 29.2877V24.3215M50.1824 29.2877L55.1487 28.5783V23.6121L50.1824 24.3215M30.3176 24.3215V19.3553C39.9605 20.6176 42.4324 18.9874 43.7973 13.6796C45.4238 18.2621 46.566 20.0221 50.1824 17.9364V24.3215M30.3176 24.3215H27.8345M27.8345 24.3215L25.3514 11.5513C33.3086 10.8961 35.6258 9.05894 38.8311 5.16613C45.2162 1.61875 55.8581 6.585 55.1487 14.3891L53.0203 23.6121" stroke="#3D5AFE" stroke-width="3" stroke-linecap="round" stroke-linejoin="round"/>
</svg>