<svg xmlns="http://www.w3.org/2000/svg" width="140" height="140" viewBox="0 0 140 140" fill="none">
<g clip-path="url(#clip0)">
<path d="M29.8251 80.5938C30.2971 80.9209 30.7952 81.2085 31.3144 81.4538C31.9336 81.7705 32.9727 82.3009 33.0444 82.6721C33.1357 83.162 33.0773 83.668 32.8767 84.1241C32.6631 84.5827 32.4381 84.9769 32.246 85.318C31.72 86.244 30.8428 87.7963 32.1672 88.8799C32.4768 89.1665 33.0114 89.5808 33.5002 89.9549C33.141 90.582 32.9783 91.3025 33.0329 92.0232C33.1093 92.5905 33.417 93.101 33.8829 93.4336C34.2011 93.6572 34.5408 93.8521 34.8762 94.0427C35.7233 94.5258 36.0544 94.7494 36.1662 95.1994C36.2461 95.7763 36.1971 96.3637 36.0229 96.9194C35.9397 97.3036 35.8566 97.6877 35.8093 98.0661C35.6668 99.3723 35.8277 100.694 36.2794 101.928C36.9236 104.205 38.983 105.791 41.3491 105.833C41.7442 105.832 42.138 105.79 42.5245 105.709C46.6191 104.738 50.6541 103.53 54.6089 102.092C57.8382 103.987 59.8778 109.749 60.4096 111.912C60.5684 112.552 61.1426 113 61.8014 113L97.778 112.9C98.234 112.899 98.6623 112.681 98.9317 112.313C99.2011 111.945 99.2794 111.471 99.1426 111.036C98.7872 110.065 98.298 109.149 97.6892 108.313C97.3459 107.819 97.0361 107.302 96.7618 106.766C96.1145 105.452 95.5734 104.087 95.1436 102.686C94.3254 99.9158 93.7584 97.0778 93.4494 94.2061C92.9451 89.9181 93.5948 85.5731 95.3313 81.62C96.3909 79.4277 97.697 77.3632 99.2243 75.4667C100.084 74.3057 100.977 73.1032 101.781 71.8375C102.528 70.648 103.164 69.3929 103.683 68.0879C105.568 67.5555 107.297 66.5772 108.724 65.2356C110.987 63.1345 112.276 60.188 112.283 57.1C112.212 52.4969 109.402 48.3801 105.141 46.6367C105.844 44.9569 106.206 43.1542 106.206 41.3333C105.986 33.2176 99.2438 26.8083 91.1274 27C88.5034 26.9986 85.921 27.6556 83.6167 28.9106C79.4955 27.4271 75.1166 26.7933 70.7439 27.0473C66.0805 27.371 61.447 28.0359 56.8807 29.0368C50.4178 30.3268 45.7194 32.5929 42.5159 35.9813C39.9861 38.6875 38.03 41.8776 36.7653 45.3596C36.2476 46.8566 35.8226 48.3841 35.4925 49.9333L35.3492 50.5382C35.0437 51.664 34.632 52.7583 34.1194 53.8062C33.8327 54.4584 33.5375 55.1105 33.278 55.7899C32.9516 56.543 32.8223 57.3668 32.9025 58.1836C33.1908 59.4686 33.9328 60.6065 34.9923 61.3885C35.6918 62.0307 36.1519 62.4836 36.1576 62.8778C36.1058 63.0955 36.0238 63.3049 35.9139 63.4998C34.1971 67.1161 32.0931 70.5355 29.6388 73.698C28.6011 74.9608 27.5146 76.4342 27.7425 77.9091C28.0484 79.0472 28.7989 80.0146 29.8251 80.5938ZM103.339 41.3333C103.339 43.2302 102.841 45.0939 101.896 46.7384C101.674 47.1244 101.644 47.5918 101.814 48.0031C101.985 48.4145 102.337 48.7231 102.767 48.8383C106.595 49.775 109.32 53.1607 109.417 57.1C109.407 59.3983 108.444 61.5896 106.758 63.1515C104.987 64.8043 102.651 65.7163 100.229 65.7H92.2368C92.1407 65.5925 92.0662 65.4721 91.9644 65.3689C91.4536 64.8614 90.8747 64.4272 90.2444 64.0789C90.3783 63.6754 90.4743 63.2604 90.5311 62.8391H100.817C101.608 62.8391 102.25 62.1974 102.25 61.4057C102.25 60.6141 101.608 59.9724 100.817 59.9724H90.3347C89.8349 58.1686 88.6145 56.65 86.9605 55.7736C85.3065 54.8973 83.3647 54.7404 81.5914 55.3399C78.823 51.5043 73.6647 50.2718 69.4613 52.4417C65.258 54.6115 63.2752 59.5303 64.7985 64.0087C64.7268 64.0459 64.6637 64.0947 64.5949 64.1348C62.1872 62.6005 60.7161 59.9549 60.6834 57.1C60.6935 54.8017 61.6562 52.6105 63.3422 51.0485C64.4409 50.023 65.7672 49.2729 67.2122 48.8598C67.6569 48.7312 68.0122 48.3958 68.1661 47.9592C68.32 47.5226 68.2535 47.0386 67.9876 46.6596C67.1865 45.5198 66.7579 44.1599 66.7607 42.7667C66.9086 38.6744 70.3361 35.4711 74.429 35.6C75.7943 35.5923 77.1384 35.9379 78.3306 36.6033C78.6639 36.7896 79.0577 36.8352 79.4247 36.7299C79.7918 36.6247 80.1016 36.3774 80.2856 36.0429C82.505 32.1633 86.6583 29.7972 91.1274 29.8667C97.6607 29.6752 103.12 34.801 103.339 41.3333ZM65.5166 66.9484L65.5323 66.9355C66 66.5819 66.5286 66.3171 67.0918 66.1544C67.511 66.0357 67.8534 65.7328 68.0224 65.3312C68.1914 64.9297 68.1686 64.4731 67.9604 64.0904C66.8407 61.9806 66.9317 59.4338 68.199 57.4092C69.4663 55.3847 71.7173 54.19 74.1043 54.2752C76.4912 54.3605 78.6514 55.7126 79.7711 57.8224C79.9525 58.1734 80.2707 58.4339 80.6506 58.5424C81.0305 58.651 81.4383 58.5979 81.7777 58.3957C82.3843 58.034 83.0782 57.8452 83.7844 57.8496C85.9786 57.8567 87.7545 59.6358 87.7576 61.83C87.7615 62.6025 87.535 63.3585 87.1069 64.0015C86.8544 64.3787 86.7955 64.8532 86.948 65.2806C87.1006 65.7081 87.4466 66.0381 87.8809 66.1701C88.6569 66.4068 89.3631 66.83 89.9377 67.4028C91.3288 68.8007 91.743 70.8979 90.9876 72.7196C90.2322 74.5413 88.4555 75.7301 86.4834 75.7333H68.4334C65.7364 75.7333 63.55 73.547 63.55 70.85C63.557 69.3129 64.2852 67.8683 65.5166 66.9484ZM31.9078 75.4467C34.4728 72.1434 36.6719 68.5717 38.4667 64.7941C38.8039 64.2019 38.9936 63.5373 39.02 62.8563C38.8736 61.415 38.1097 60.1079 36.9259 59.2729C36.3525 58.7412 35.7993 58.2395 35.7362 57.7751C35.7475 57.4363 35.8229 57.1026 35.9584 56.7918C36.192 56.1784 36.4629 55.5764 36.7324 54.9744C37.3209 53.7617 37.7908 52.4949 38.1356 51.1918L38.2789 50.5812C38.5834 49.1481 38.9754 47.7351 39.4528 46.35C40.5837 43.2319 42.333 40.3745 44.5956 37.9492C47.3376 35.0482 51.6534 32.9956 57.444 31.8447C61.873 30.8724 66.3669 30.2247 70.8901 29.9068C74.1974 29.7187 77.513 30.0815 80.7013 30.9804C79.8656 31.7348 79.1209 32.5843 78.4825 33.5116C77.193 32.9972 75.8174 32.733 74.429 32.7333C68.7529 32.6043 64.0418 37.091 63.894 42.7667C63.8921 44.1301 64.1809 45.4783 64.7411 46.7212C63.5026 47.2777 62.3648 48.0357 61.3742 48.9644C59.1117 51.0657 57.8233 54.0122 57.8167 57.1C57.8454 60.6312 59.5265 63.9451 62.3589 66.054C60.5149 68.382 60.1655 71.5599 61.4597 74.233C62.7539 76.906 65.4635 78.6028 68.4334 78.6H86.4834C88.9529 78.6307 91.2855 77.4681 92.7478 75.4779C94.21 73.4876 94.6223 70.9141 93.855 68.5667H100.229C100.268 68.5667 100.305 68.5667 100.344 68.5667C100.047 69.1515 99.7274 69.7348 99.3619 70.3125C98.618 71.4892 97.758 72.6474 96.9252 73.7682C95.2667 75.8378 93.8513 78.0909 92.7069 80.4834C90.7665 84.9046 90.0411 89.7636 90.6056 94.5587C90.9362 97.6006 91.5402 100.607 92.4102 103.54C92.8817 105.081 93.4766 106.582 94.189 108.028C94.5157 108.674 94.8869 109.296 95.2998 109.891L95.3958 110.034L62.885 110.133C61.9329 106.733 60.2059 103.6 57.8396 100.98L59.1296 100.527C60.0885 100.193 60.8109 99.9409 61.1807 99.8219C67.3226 97.8798 70.3928 95.0833 70.3096 91.5086C70.31 91.1274 70.1547 90.7626 69.8798 90.4986C69.605 90.2345 69.2342 90.0941 68.8534 90.1097C68.0622 90.1285 67.436 90.7848 67.4544 91.576C67.4888 93.0509 66.2805 95.2023 60.3207 97.0871C59.9323 97.2118 59.1855 97.4727 58.1951 97.8181C57.1287 98.1908 55.7742 98.6652 54.2778 99.1726H54.2692C50.2354 100.651 46.1197 101.895 41.9425 102.899C40.6065 103.154 39.3068 102.312 38.9927 100.989C38.6875 100.173 38.5723 99.2975 38.6559 98.4302C38.6946 98.1306 38.762 97.831 38.8279 97.5315C39.1194 96.5409 39.1618 95.4937 38.9512 94.4828C38.5352 93.1668 37.5674 92.0969 36.2995 91.5516C36.1992 91.4957 36.1003 91.4384 36.0014 91.381C36.1567 91.0685 36.342 90.7719 36.5546 90.4952C36.7949 90.1904 36.9013 89.8011 36.8495 89.4164C36.7976 89.0317 36.5919 88.6845 36.2794 88.4542C35.9354 88.2019 35.1242 87.5942 34.5293 87.1154C34.5981 86.9907 34.6727 86.8531 34.7458 86.7299C34.9708 86.3343 35.2288 85.8699 35.4782 85.3453C35.9325 84.3408 36.0661 83.2207 35.8609 82.1375C35.5169 80.3888 33.8413 79.5317 32.6187 78.9067C32.2068 78.7108 31.8118 78.4811 31.4376 78.2202C31.1305 78.0145 30.8426 77.7813 30.5776 77.5236C30.5834 77.31 30.8156 76.7811 31.9078 75.4467Z" fill="#283be7"/>
<path d="M83.3595 39.3769C83.6925 39.5607 84.0848 39.6046 84.4502 39.4989C84.8155 39.3932 85.1239 39.1467 85.3074 38.8136C86.5185 36.7639 88.7469 35.5333 91.1267 35.6001C94.4931 35.4112 97.3835 37.969 97.6054 41.3334C97.6051 42.2283 97.3703 43.1074 96.9246 43.8833C96.5288 44.5701 96.7646 45.4476 97.4513 45.8434C98.138 46.2392 99.0156 46.0034 99.4114 45.3167C100.107 44.1043 100.472 42.731 100.472 41.3334C100.253 36.3843 96.077 32.5417 91.1267 32.7334C87.702 32.6661 84.5111 34.4652 82.7962 37.4305C82.4145 38.1236 82.6667 38.9948 83.3595 39.3769Z" fill="#283be7"/>
</g>
<defs>
<clipPath id="clip0">
<rect width="86" height="86" fill="white" transform="translate(27 27)"/>
</clipPath>
</defs>
</svg>