<svg xmlns="http://www.w3.org/2000/svg" width="140" height="140" viewBox="0 0 140 140" fill="none">
<path d="M94.9929 59.5188C95.6077 58.6992 95.7049 57.6207 95.2467 56.7044C94.7885 55.788 93.8675 55.2188 92.8429 55.2188H49.8427V54.7577C49.8427 53.681 50.2621 52.6685 51.0234 51.9072L51.809 51.1217C52.0433 51.1642 52.284 51.1875 52.5302 51.1875C54.7531 51.1875 56.5615 49.3791 56.5615 47.1562C56.5615 44.9334 54.7531 43.125 52.5302 43.125C50.3073 43.125 48.499 44.9334 48.499 47.1562C48.499 48.1263 48.8435 49.0172 49.4164 49.7136L49.1231 50.0068C47.8541 51.2759 47.1552 52.9631 47.1552 54.7577V55.2188C46.1316 55.2196 45.2117 55.7887 44.7539 56.7043C44.2957 57.6207 44.3931 58.6991 45.0077 59.5186L55.2202 73.1351V104.938H52.5327C51.0509 104.938 49.8452 106.143 49.8452 107.625V111.656C49.8452 112.398 50.4469 113 51.189 113H88.8118C89.5539 113 90.1556 112.398 90.1556 111.656V107.625C90.1556 106.143 88.9499 104.938 87.4681 104.938H84.7806V73.1355L94.9929 59.5188ZM52.5302 45.8125C53.2711 45.8125 53.874 46.4153 53.874 47.1562C53.874 47.8972 53.2711 48.5 52.5302 48.5C51.7893 48.5 51.1865 47.8972 51.1865 47.1562C51.1865 46.4153 51.7893 45.8125 52.5302 45.8125ZM80.7491 104.938C80.0071 104.938 79.4054 105.539 79.4054 106.281C79.4054 107.023 80.0071 107.625 80.7491 107.625H87.4679V110.312H52.5327V107.625H75.374C76.1161 107.625 76.7177 107.023 76.7177 106.281C76.7177 105.539 76.1161 104.938 75.374 104.938H57.9077V65.9688H75.3743C76.1164 65.9688 76.7181 65.3671 76.7181 64.625C76.7181 63.8829 76.1164 63.2812 75.3743 63.2812H56.564C55.8219 63.2812 55.2202 63.8829 55.2202 64.625V68.6562L47.1577 57.9062H92.8431L84.7806 68.6562V64.625C84.7806 63.8829 84.1789 63.2812 83.4368 63.2812H80.7485C80.0064 63.2812 79.4047 63.8829 79.4047 64.625C79.4047 65.3671 80.0064 65.9688 80.7485 65.9688H82.0931V104.938H80.7491Z" fill="#283be7"/>
<path d="M59.2729 54.0541C60.015 54.0541 60.6167 53.4524 60.6167 52.7103V49.7997C60.6167 48.892 61.6586 47.1563 63.2921 47.1563H65.4298C66.0997 47.8233 67.5473 49.2743 68.6671 50.3987V52.4872C68.6671 53.2293 69.2688 53.831 70.0108 53.831C70.7529 53.831 71.3546 53.2293 71.3546 52.4872V50.4021C71.7404 50.0178 72.3574 49.4032 72.9755 48.7866C73.4802 48.283 73.9848 47.7789 74.3634 47.3995C74.4513 47.3115 74.5317 47.2308 74.6055 47.1563H76.7296C78.3631 47.1563 79.405 48.892 79.405 49.7997V52.7159C79.405 53.4579 80.0067 54.0596 80.7488 54.0596C81.4908 54.0596 82.0925 53.4579 82.0925 52.7159V49.7997C82.0925 48.63 81.5476 47.3209 80.6349 46.2981C79.582 45.1185 78.1953 44.4688 76.7296 44.4688H74.0421C73.6427 44.4688 73.2841 44.6431 73.0378 44.9196C72.8336 45.1319 71.3334 46.6295 70.0145 47.9435C69.6949 47.6227 69.3247 47.2515 68.9542 46.8803C68.4508 46.3759 67.9469 45.8713 67.5674 45.4927C66.682 44.6092 66.629 44.5563 66.1938 44.4861C66.1229 44.4746 66.0513 44.4689 65.9796 44.4689H63.2921C61.8264 44.4689 60.4397 45.1186 59.3868 46.2983C58.4741 47.321 57.9292 48.6302 57.9292 49.7999V52.7105C57.9292 53.4526 58.5309 54.0541 59.2729 54.0541Z" fill="#283be7"/>
<path d="M70.0107 44.4688C74.4564 44.4688 78.0732 40.8519 78.0732 36.4062V35.0748C78.0732 35.0738 78.0732 35.0727 78.0732 35.0717V28.3438C78.0732 27.6017 77.4716 27 76.7295 27H65.9795C63.7566 27 61.9482 28.8084 61.9482 31.0312V36.4062C61.9482 40.8519 65.5649 44.4688 70.0107 44.4688ZM70.0107 41.7812C67.0469 41.7812 64.6357 39.3701 64.6357 36.4062V35.0707L75.3857 36.2652V36.4062C75.3857 39.3701 72.9746 41.7812 70.0107 41.7812ZM65.9795 29.6875H75.3857V33.5612L64.7841 32.3832C64.7342 32.3777 64.6848 32.3755 64.6357 32.3755V31.0312C64.6357 30.2903 65.2386 29.6875 65.9795 29.6875Z" fill="#283be7"/>
</svg>