<svg xmlns="http://www.w3.org/2000/svg" width="140" height="140" viewBox="0 0 140 140" fill="none">
<path d="M50.891 74.1992C50.2462 73.9376 49.5117 74.2483 49.2502 74.8931C48.7237 76.1912 47.4769 77.03 46.0737 77.03C45.1588 77.03 44.2971 76.6731 43.6485 76.0262C43.3213 75.699 43.0689 75.3186 42.8981 74.8951C42.6375 74.2498 41.9035 73.9379 41.2583 74.1984C40.6132 74.4589 40.3012 75.193 40.5616 75.8381C40.8599 76.5772 41.2992 77.2398 41.8681 77.8089C42.9935 78.9315 44.487 79.5496 46.0737 79.5496C48.5077 79.5496 50.6712 78.0936 51.5851 75.8401C51.8465 75.1955 51.5357 74.4608 50.891 74.1992Z" fill="#283be7"/>
<path d="M40.2788 67.2734C39.5831 67.2734 39.019 67.8375 39.019 68.5332V69.0924C39.019 69.7881 39.5831 70.3521 40.2788 70.3521C40.9745 70.3521 41.5386 69.7881 41.5386 69.0924V68.5332C41.5386 67.8375 40.9745 67.2734 40.2788 67.2734Z" fill="#283be7"/>
<path d="M51.8682 67.2734C51.1724 67.2734 50.6084 67.8375 50.6084 68.5332V69.0924C50.6084 69.7881 51.1724 70.3521 51.8682 70.3521C52.5639 70.3521 53.1279 69.7881 53.1279 69.0924V68.5332C53.1279 67.8375 52.5639 67.2734 51.8682 67.2734Z" fill="#283be7"/>
<path d="M79.1521 64.5415C78.5076 64.2799 77.7727 64.5905 77.5112 65.2353C76.7083 67.2147 74.8072 68.4938 72.6678 68.4938C71.2728 68.4938 69.9593 67.9499 68.9703 66.9632C68.4714 66.4642 68.0861 65.8835 67.8252 65.2374C67.5647 64.5922 66.8305 64.2801 66.1855 64.5408C65.5403 64.801 65.2284 65.5352 65.4889 66.1803C65.8773 67.1425 66.4491 68.0052 67.1898 68.7459C68.6555 70.2081 70.6011 71.0133 72.6678 71.0133C75.838 71.0133 78.6556 69.117 79.846 66.1824C80.1075 65.5377 79.7968 64.803 79.1521 64.5415Z" fill="#283be7"/>
<path d="M64.6499 54.9927C63.9542 54.9927 63.3901 55.5567 63.3901 56.2524V57.0261C63.3901 57.7218 63.9542 58.2859 64.6499 58.2859C65.3456 58.2859 65.9097 57.7218 65.9097 57.0261V56.2524C65.9097 55.5567 65.3456 54.9927 64.6499 54.9927Z" fill="#283be7"/>
<path d="M80.686 54.9927C79.9903 54.9927 79.4263 55.5567 79.4263 56.2524V57.0261C79.4263 57.7218 79.9903 58.2859 80.686 58.2859C81.3818 58.2859 81.9458 57.7218 81.9458 57.0261V56.2524C81.9458 55.5567 81.3818 54.9927 80.686 54.9927Z" fill="#283be7"/>
<path d="M106 84.3871C105.454 83.9564 104.662 84.05 104.231 84.5964C103.8 85.1426 103.894 85.9349 104.44 86.3656C107.714 88.9463 109.591 92.8139 109.591 96.9767C109.591 104.423 103.533 110.481 96.0869 110.481C88.6406 110.481 82.5828 104.423 82.5828 96.9767C82.5828 89.5305 88.6406 83.4727 96.0869 83.4727C97.4923 83.4727 98.8765 83.6873 100.201 84.1104C100.864 84.3222 101.573 83.9566 101.785 83.2939C101.997 82.6313 101.631 81.9221 100.968 81.7105C99.3952 81.2079 97.7528 80.9531 96.0869 80.9531C92.5192 80.9531 89.2205 82.1255 86.5548 84.1047C84.7792 83.3453 82.8937 82.9607 80.9384 82.9607H79.939V80.08C81.6304 79.2949 83.1989 78.2323 84.5825 76.915C87.5048 74.1309 89.3374 70.469 89.8176 66.5H92.3465C95.1038 66.5 97.3468 64.257 97.3468 61.4997V59.73C97.3468 57.7717 96.2145 56.0737 94.571 55.2536V40.241C94.571 35.4694 90.6889 31.5872 85.9172 31.5872H83.6986C82.2289 28.7917 79.279 27 76.1074 27H65.6329C62.796 27 60.0376 27.8017 57.6562 29.3186C57.0693 29.6924 56.8966 30.4711 57.2705 31.058C57.6442 31.6447 58.4226 31.8175 59.0098 31.4436C60.986 30.1849 63.2763 29.5195 65.6329 29.5195H76.1074C78.4108 29.5195 80.5484 30.8576 81.5545 32.9305L81.783 33.3991C81.9941 33.8322 82.4337 34.1068 82.9152 34.1068H85.9168C89.2992 34.1068 92.0511 36.8586 92.0511 40.241V54.7299H89.9451V48.7505C89.9451 44.3833 88.0872 40.198 84.8476 37.2676C84.324 36.794 83.5851 36.6416 82.9196 36.8702C82.2531 37.099 81.763 37.6738 81.6403 38.3705C80.6545 43.9752 75.8001 48.043 70.0977 48.043H56.6515H54.6137C53.918 48.043 53.354 48.6071 53.354 49.3028C53.354 49.9985 53.918 50.5626 54.6137 50.5626H55.3918V54.7299H53.2854V41.867C53.2854 39.211 54.1152 36.6816 55.6852 34.5519C56.0981 33.9919 55.9788 33.2033 55.4186 32.7904C54.8588 32.3775 54.07 32.4968 53.6571 33.057C51.7656 35.6227 50.7659 38.6693 50.7659 41.867V55.2538C49.1223 56.074 47.9902 57.7718 47.9902 59.73V61.4997C47.9902 61.517 47.9914 61.534 47.9915 61.5513H47.7828C47.5332 61.5513 47.2877 61.4673 47.0916 61.3145L42.9963 58.1283C42.4717 57.7218 41.8017 57.5807 41.158 57.7423C40.5146 57.9033 39.99 58.3433 39.7185 58.95L38.8557 60.884C38.6743 61.2893 38.2706 61.5511 37.827 61.5511H35.7577V55.553C35.7577 54.5119 36.6054 53.665 37.6473 53.665H41.0957C41.7915 53.665 42.3555 53.1009 42.3555 52.4052V51.2597C42.3555 50.7734 42.7511 50.3778 43.2373 50.3778H47.2266C47.9223 50.3778 48.4864 49.8138 48.4864 49.118C48.4864 48.4223 47.9223 47.8583 47.2266 47.8583H43.2373C41.4001 47.8583 39.8983 49.3226 39.8378 51.1454H37.6475C35.2163 51.1454 33.2383 53.1226 33.2383 55.553V61.9643V62.8109V67.0824H31.8525C29.6676 67.0824 27.8901 68.8607 27.8901 71.0464V72.3247C27.8901 74.5105 29.6678 76.2888 31.8525 76.2888H33.374C33.9975 80.5824 36.7315 84.1607 40.471 85.9756V87.4856H40.0982C34.6601 87.4856 30.09 91.5577 29.4674 96.9571L28.263 107.364C28.2081 107.838 28.3586 108.314 28.6761 108.671C28.994 109.028 29.4507 109.232 29.9293 109.232H45.0566C45.7523 109.232 46.3164 108.668 46.3164 107.973C46.3164 107.277 45.7523 106.713 45.0566 106.713H37.0107V99.7019C37.0107 99.0061 36.4467 98.4421 35.7509 98.4421C35.0552 98.4421 34.4912 99.0061 34.4912 99.7019V106.713H30.8748L31.9703 97.246C32.4461 93.118 35.9406 90.005 40.0982 90.005H40.5486C40.9906 92.6566 43.2997 94.6846 46.0745 94.6846C47.5701 94.6846 48.9768 94.1014 50.0357 93.0425C50.8732 92.2051 51.4117 91.1495 51.6009 90.0052H52.0509C52.0535 90.0052 52.0562 90.0053 52.0591 90.0053C51.0677 91.6847 50.4061 93.5898 50.1696 95.6383L48.503 110.042C48.4444 110.562 48.6107 111.084 48.959 111.474C49.3069 111.863 49.8058 112.086 50.3275 112.086H90.7534C92.4226 112.677 94.2176 113 96.0867 113C104.922 113 112.11 105.812 112.11 96.9764C112.11 92.0374 109.883 87.4487 106 84.3871ZM50.5097 59.73C50.5097 58.3621 51.6225 57.2493 52.9905 57.2493H56.6515C57.3473 57.2493 57.9113 56.6852 57.9113 55.9895V50.5624H70.0977C76.6632 50.5624 82.3038 46.122 83.8958 39.8597C86.1502 42.2538 87.4255 45.4397 87.4255 48.7504V55.9895C87.4255 56.6852 87.9896 57.2493 88.6853 57.2493H92.3464C93.7143 57.2493 94.8271 58.3621 94.8271 59.73V61.4997C94.8271 62.8677 93.7143 63.9805 92.3464 63.9805H88.6623C87.9918 63.9805 87.4388 64.5056 87.4042 65.1751C87.2085 68.9542 85.5891 72.4755 82.8445 75.0905C81.4826 76.3872 79.9106 77.3947 78.2099 78.0834C78.1945 78.0896 78.1793 78.0961 78.1642 78.1028C76.4365 78.7957 74.5766 79.1592 72.6683 79.1592C70.7233 79.1592 68.8638 78.7819 67.1597 78.0968C67.1392 78.0879 67.118 78.0803 67.0971 78.0724C61.9474 75.975 58.2353 71.0525 57.9325 65.1752C57.8979 64.5056 57.3449 63.9803 56.6744 63.9803H52.9905C51.6225 63.9803 50.5097 62.8675 50.5097 61.4996V59.73V59.73ZM77.4193 81.0169V86.3117C77.4193 87.5802 76.9249 88.7739 76.0271 89.6729C75.1319 90.5697 73.9393 91.0635 72.6691 91.0635C70.0489 91.0635 67.9172 88.9318 67.9172 86.3117V81.0178C69.4281 81.4485 71.0222 81.6787 72.6684 81.6787C74.2949 81.6787 75.8908 81.4525 77.4193 81.0169ZM49.1584 89.0815C49.1584 89.904 48.8373 90.678 48.2541 91.2612C47.6711 91.8444 46.8971 92.1654 46.0745 92.1654C44.374 92.1654 42.9906 90.782 42.9906 89.0815V86.8836C43.9796 87.1273 45.0119 87.259 46.0745 87.259C47.1255 87.259 48.1595 87.1312 49.1584 86.885V89.0815ZM52.0509 87.4858H51.678V85.971C52.8569 85.3979 53.9533 84.6439 54.9257 83.7179C56.3756 82.3355 57.4961 80.6115 58.1658 78.7326C58.3993 78.0771 58.0573 77.3566 57.402 77.1229C56.7473 76.8896 56.0262 77.2313 55.7924 77.8867C55.2544 79.3965 54.3534 80.7825 53.1877 81.8939C52.2309 82.805 51.1262 83.5123 49.9311 83.994C49.9289 83.995 49.9265 83.9959 49.9244 83.9969C48.7143 84.4837 47.4114 84.7393 46.0747 84.7393C44.716 84.7393 43.4171 84.4758 42.2263 83.9976C42.2132 83.992 42.1996 83.9875 42.1862 83.9823C38.5834 82.5174 35.9854 79.0747 35.7731 74.964C35.7385 74.2945 35.1854 73.7692 34.515 73.7692H31.8527C31.057 73.7692 30.4098 73.1212 30.4098 72.3247V71.0464C30.4098 70.2499 31.0572 69.6019 31.8527 69.6019H34.4982C35.194 69.6019 35.758 69.0379 35.758 68.3421V64.0708H37.8274C39.263 64.0708 40.5696 63.2238 41.1564 61.9118L41.8262 60.4103L45.5439 63.3027C46.1798 63.7981 46.975 64.071 47.7828 64.071H48.7039C49.5794 65.5251 51.173 66.5 52.9905 66.5H55.5189C56.2508 72.5669 60.1041 77.6253 65.3977 80.0805V82.9607H64.3983C60.2321 82.9607 56.4485 84.7491 53.8164 87.6326C53.2349 87.5358 52.644 87.4858 52.0509 87.4858ZM59.6441 109.567V99.3817C59.6441 98.686 59.08 98.1219 58.3843 98.1219C57.6886 98.1219 57.1245 98.686 57.1245 99.3817V109.567H51.0943L52.6725 95.9279C53.36 89.9719 58.4009 85.4802 64.3983 85.4802H65.3977V86.3117C65.3977 90.3211 68.6597 93.5831 72.6691 93.5831C74.613 93.5831 76.4388 92.8267 77.8101 91.4531C79.1828 90.0782 79.9388 88.2524 79.9388 86.3117V85.4802H80.9382C82.1364 85.4802 83.3021 85.6563 84.4223 86.0028C81.7211 88.8722 80.0633 92.7343 80.0633 96.9767C80.0633 102.078 82.4599 106.63 86.1861 109.567H59.6441V109.567Z" fill="#283be7"/>
<path d="M105.033 93.2165H99.8463V88.0303C99.8463 87.0376 99.0388 86.23 98.0461 86.23H94.1267C93.134 86.23 92.3264 87.0376 92.3264 88.0303V93.2165H87.1401C86.1474 93.2165 85.3398 94.0241 85.3398 95.0168V98.9362C85.3398 99.9289 86.1474 100.736 87.1401 100.736H92.3264V105.923C92.3264 106.915 93.134 107.723 94.1267 107.723H98.0461C99.0388 107.723 99.8463 106.915 99.8463 105.923V100.736H105.033C106.025 100.736 106.833 99.9289 106.833 98.9362V95.0168C106.833 94.0241 106.025 93.2165 105.033 93.2165ZM104.314 98.2171H99.1274C98.1347 98.2171 97.327 99.0249 97.327 100.018V105.204H94.8459V100.018C94.8459 99.0249 94.0383 98.2171 93.0456 98.2171H87.8594V98.217V95.7359H93.0456C94.0383 95.7359 94.8459 94.9281 94.8459 93.9354V88.7494H97.327V93.9356C97.327 94.9283 98.1347 95.736 99.1274 95.736H104.314V98.2171Z" fill="#283be7"/>
</svg>