<svg xmlns="http://www.w3.org/2000/svg" width="140" height="140" viewBox="0 0 140 140" fill="none">
<path d="M81.8622 49.3503C84.1776 49.3503 86.0614 47.4665 86.0614 45.151C86.0614 42.8356 84.1776 40.9517 81.8622 40.9517C79.5467 40.9517 77.6629 42.8356 77.6629 45.151C77.6629 46.0967 77.9774 46.9701 78.507 47.6729L71.6075 57.3145C71.1958 57.1793 70.7566 57.105 70.3 57.105C69.1967 57.105 68.1919 57.5335 67.4417 58.2319L62.8429 55.6224C62.9042 55.3375 62.9371 55.0422 62.9371 54.7394C62.9371 52.4239 61.0534 50.5402 58.7379 50.5402C56.4225 50.5402 54.5387 52.4239 54.5387 54.7394C54.5387 55.0422 54.5716 55.3375 54.6329 55.6224L50.0341 58.2319C49.284 57.5335 48.2792 57.1052 47.1758 57.1052C44.8603 57.1052 42.9766 58.9892 42.9766 61.3046C42.9766 63.62 44.8603 65.504 47.1758 65.504C49.4912 65.504 51.375 63.62 51.375 61.3046C51.375 61.0018 51.3421 60.7065 51.2808 60.4216L55.8796 57.812C56.6297 58.5104 57.6345 58.9389 58.7379 58.9389C59.8413 58.9389 60.8459 58.5104 61.5962 57.8122L66.1951 60.4218C66.1337 60.7066 66.1008 61.0019 66.1008 61.3048C66.1008 63.6202 67.9846 65.5042 70.3 65.5042C72.6157 65.5042 74.4994 63.6202 74.4994 61.3048C74.4994 60.3589 74.1848 59.4853 73.6552 58.7825L80.5547 49.141C80.9662 49.276 81.4056 49.3503 81.8622 49.3503ZM81.8622 43.4712C82.7883 43.4712 83.5419 44.2247 83.5419 45.151C83.5419 46.0772 82.7883 46.8307 81.8622 46.8307C80.936 46.8307 80.1825 46.0772 80.1825 45.151C80.1823 44.2247 80.9358 43.4712 81.8622 43.4712ZM47.1753 62.9841C46.2491 62.9841 45.4956 62.2306 45.4956 61.3043C45.4956 60.3779 46.2491 59.6244 47.1753 59.6244C48.1015 59.6244 48.855 60.3779 48.855 61.3043C48.855 62.2306 48.1015 62.9841 47.1753 62.9841ZM58.7376 56.4191C57.8114 56.4191 57.0579 55.6656 57.0579 54.7392C57.0579 53.813 57.8114 53.0595 58.7376 53.0595C59.6638 53.0595 60.4173 53.813 60.4173 54.7392C60.4174 55.6656 59.6638 56.4191 58.7376 56.4191ZM70.2999 62.9841C69.3737 62.9841 68.6202 62.2306 68.6202 61.3043C68.6202 60.3779 69.3737 59.6244 70.2999 59.6244C71.2262 59.6244 71.9797 60.3779 71.9797 61.3043C71.9797 62.2306 71.226 62.9841 70.2999 62.9841Z" fill="#283be7"/>
<path d="M97.3446 90.3184H88.5286H40.5094H30.5635C29.9878 90.3184 29.5195 89.8501 29.5195 89.2745V37.3017C29.5195 36.7261 29.9878 36.2578 30.5635 36.2578H36.5022C37.1979 36.2578 37.7619 35.6939 37.7619 34.998C37.7619 34.3022 37.1979 33.7383 36.5022 33.7383H30.5635C28.5986 33.7383 27 35.3368 27 37.3017V89.2745C27 91.2394 28.5986 92.8379 30.5635 92.8379H39.2496V95.6104C39.2496 97.1898 40.5346 98.4748 42.114 98.4748H54.7241L48.7881 110.064C48.4709 110.684 48.7157 111.443 49.335 111.76C49.5187 111.854 49.7149 111.899 49.9083 111.899C50.366 111.899 50.8076 111.648 51.0305 111.213L57.5549 98.4748H71.4832L78.0076 111.213C78.2306 111.648 78.6721 111.899 79.1298 111.899C79.3231 111.899 79.5193 111.854 79.7031 111.76C80.3224 111.443 80.5673 110.684 80.25 110.064L74.3139 98.4748H86.924C88.5034 98.4748 89.7884 97.19 89.7884 95.6104V92.8379H97.3446C98.0404 92.8379 98.6044 92.2741 98.6044 91.5782C98.6044 90.8823 98.0404 90.3184 97.3446 90.3184ZM87.2689 95.6104C87.2689 95.8006 87.1142 95.9553 86.924 95.9553H42.114C41.9239 95.9553 41.7692 95.8006 41.7692 95.6104V92.8379H87.2689V95.6104Z" fill="#283be7"/>
<path d="M41.5415 36.2578H58.7872H70.2512H98.4747C99.0503 36.2578 99.5186 36.7261 99.5186 37.3017V49.2797C99.5186 49.9756 100.083 50.5395 100.778 50.5395C101.474 50.5395 102.038 49.9756 102.038 49.2797V37.3017C102.038 35.3368 100.44 33.7383 98.4747 33.7383H71.5112V31.2621C71.5112 29.5194 70.0933 28.1016 68.3505 28.1016H60.6881C58.9454 28.1016 57.5274 29.5194 57.5274 31.2621V33.7383H41.5415C40.8458 33.7383 40.2817 34.3021 40.2817 34.998C40.2817 35.6939 40.8458 36.2578 41.5415 36.2578ZM60.047 31.2621C60.047 30.9087 60.3345 30.6211 60.6881 30.6211H68.3505C68.7039 30.6211 68.9916 30.9087 68.9916 31.2621V33.7383H60.0471V31.2621H60.047Z" fill="#283be7"/>
<path d="M44.6206 71.9443C43.9249 71.9443 43.3608 72.5082 43.3608 73.2041V84.3357C43.3608 85.0316 43.9249 85.5955 44.6206 85.5955H49.7314C50.4271 85.5955 50.9911 85.0316 50.9911 84.3357V73.2041C50.9911 72.5082 50.4271 71.9443 49.7314 71.9443H44.6206ZM48.4716 83.0761H45.8804V74.464H48.4716V83.0761V83.0761Z" fill="#283be7"/>
<path d="M56.1826 65.5063C55.4869 65.5063 54.9229 66.0702 54.9229 66.7661V84.3358C54.9229 85.0317 55.4869 85.5956 56.1826 85.5956H61.2934C61.9891 85.5956 62.5532 85.0317 62.5532 84.3358V66.7661C62.5532 66.0702 61.9891 65.5063 61.2934 65.5063H56.1826ZM60.0338 83.076H57.4426V68.0259H60.0338V83.076Z" fill="#283be7"/>
<path d="M67.7446 71.9443C67.0489 71.9443 66.4849 72.5082 66.4849 73.2041V84.3357C66.4849 85.0316 67.0489 85.5955 67.7446 85.5955H72.8554C73.5511 85.5955 74.1152 85.0316 74.1152 84.3357V73.2041C74.1152 72.5082 73.5511 71.9443 72.8554 71.9443H67.7446ZM71.5956 83.0761H69.0044V74.464H71.5956V83.0761Z" fill="#283be7"/>
<path d="M79.3066 79.3779C78.6109 79.3779 78.0469 79.9418 78.0469 80.6377V84.3359C78.0469 85.0318 78.6109 85.5956 79.3066 85.5956H84.4174C85.1132 85.5956 85.6772 85.0318 85.6772 84.3359C85.6772 83.64 85.1132 83.0761 84.4174 83.0761H80.5664V80.6377C80.5664 79.9418 80.0024 79.3779 79.3066 79.3779Z" fill="#283be7"/>
<path d="M112.357 91.5036L105.13 78.9856C106.961 77.034 108.295 74.6493 109.007 71.9914C110.145 67.7433 109.561 63.306 107.362 59.4972C102.822 51.634 92.7322 48.9309 84.8696 53.4703C77.0068 58.0096 74.3034 68.0997 78.8429 75.9625C81.0419 79.7713 84.5926 82.4958 88.8407 83.6343C90.2594 84.0144 91.6987 84.2024 93.129 84.2024C94.379 84.2024 95.6218 84.0586 96.8372 83.774L104.063 96.2924C104.949 97.8271 106.561 98.686 108.218 98.6858C109.03 98.6858 109.852 98.4794 110.604 98.0453C112.082 97.1925 113 95.6024 113 93.8955C113 93.0592 112.778 92.2323 112.357 91.5036ZM89.4928 81.2006C85.8947 80.2364 82.8872 77.9287 81.0246 74.7027C77.1798 68.0431 79.4697 59.4972 86.1292 55.6522C88.32 54.3874 90.7141 53.7867 93.0787 53.7867C97.902 53.7867 102.6 56.2883 105.18 60.7569C107.042 63.9829 107.537 67.7411 106.573 71.3393C105.609 74.9375 103.301 77.9447 100.075 79.8073C96.8491 81.6699 93.091 82.1644 89.4928 81.2006ZM109.345 95.8631C108.261 96.4889 106.87 96.1164 106.245 95.033L99.2932 82.9889C99.99 82.7046 100.672 82.372 101.335 81.9894C101.998 81.6064 102.627 81.1801 103.221 80.7185L110.175 92.763C110.375 93.1092 110.48 93.5009 110.48 93.8957C110.48 94.7049 110.045 95.4589 109.345 95.8631Z" fill="#283be7"/>
<path d="M104.525 71.2784C105.414 68.4135 105.203 65.3464 103.929 62.6421C103.632 62.0125 102.881 61.7428 102.252 62.0392C101.623 62.3359 101.353 63.0864 101.649 63.7157C102.654 65.8489 102.821 68.2692 102.119 70.5311C101.413 72.8054 99.8872 74.714 97.8234 75.9056C95.6395 77.1667 93.0949 77.5013 90.6592 76.8487C88.2233 76.196 86.1872 74.6337 84.9264 72.4498C82.3234 67.9413 83.8738 62.1558 88.3822 59.5528C91.6786 57.6499 95.7695 57.9042 98.8048 60.2006C99.3598 60.6206 100.15 60.5112 100.57 59.9563C100.989 59.4015 100.88 58.6113 100.325 58.1916C96.48 55.2822 91.2975 54.9602 87.1223 57.3707C84.3555 58.9681 82.3763 61.5474 81.5494 64.6333C80.7225 67.7193 81.147 70.9426 82.7443 73.7094C84.3417 76.4763 86.9211 78.4553 90.007 79.2824C91.0375 79.5585 92.0832 79.6951 93.1221 79.6951C95.1945 79.6951 97.2402 79.1515 99.083 78.0875C101.698 76.5781 103.63 74.16 104.525 71.2784Z" fill="#283be7"/>
</svg>