<svg xmlns="http://www.w3.org/2000/svg" width="140" height="140" viewBox="0 0 140 140" fill="none">
<g clip-path="url(#clip0)">
<path d="M70.0191 86.9577C68.8744 86.0907 67.4686 85.8042 66.1572 86.0487C65.9511 84.8061 65.2896 83.7074 64.2816 82.9439C63.2371 82.1528 61.9475 81.8161 60.6494 81.9951C60.3278 82.0396 60.0155 82.1146 59.7151 82.2179C59.4305 81.2419 58.8423 80.3457 57.9713 79.6861C56.5368 78.5995 54.6925 78.4257 53.1378 79.0651C52.8282 78.1334 52.2468 77.3166 51.4473 76.711C50.4029 75.92 49.1126 75.5834 47.8151 75.7623C46.7626 75.9076 45.8075 76.3782 45.062 77.1078L39.9148 76.7656L43.0697 51.1376L48.7228 51.5218C48.7548 51.5239 48.7867 51.525 48.8184 51.525C49.343 51.525 49.8277 51.2317 50.0694 50.76L52.1879 46.6262C52.7247 45.5798 53.9366 45.0478 55.0696 45.3615L58.2158 46.2315C58.9638 46.4379 59.7389 45.9994 59.9461 45.2509C60.1531 44.5024 59.714 43.7276 58.9655 43.5206L55.8198 42.6508C53.4086 41.9833 50.8286 43.1151 49.6858 45.3428L47.9894 48.6527L43.4141 48.3418L43.5225 47.4613C43.869 44.6471 41.8614 42.076 39.0472 41.7295L28.212 40.3963C27.4399 40.3018 26.7394 40.8495 26.6445 41.6202C26.5497 42.391 27.0977 43.0928 27.8683 43.1876L38.7035 44.5215C39.3212 44.5975 39.8722 44.9095 40.2551 45.4C40.638 45.8904 40.8071 46.5008 40.731 47.1184L37.0102 77.3433C36.8533 78.6181 35.6882 79.5269 34.4134 79.3709L23.5782 78.037C22.8064 77.9429 22.1056 78.49 22.0107 79.2608C21.9158 80.0316 22.4639 80.7334 23.2345 80.8283L34.0697 82.1622C34.2819 82.1882 34.4929 82.201 34.7016 82.201C36.6009 82.201 38.3145 81.1457 39.2023 79.5372L43.053 79.7931C42.5927 80.6841 42.4162 81.6927 42.5561 82.7065C42.7353 84.0042 43.4092 85.1547 44.4536 85.9455C45.3148 86.5979 46.3426 86.9412 47.4046 86.9412C47.6306 86.9412 47.858 86.9256 48.0858 86.8943C48.1004 86.8922 48.1147 86.8894 48.1291 86.8872C48.131 86.9018 48.1321 86.9162 48.134 86.9309C48.3133 88.2285 48.9871 89.379 50.0315 90.1699C50.9156 90.8393 51.9551 91.1627 52.9869 91.1627C53.2287 91.1627 53.4701 91.143 53.7089 91.1078C53.8709 92.3693 54.518 93.5676 55.6096 94.3943C56.4937 95.0638 57.5332 95.3871 58.565 95.3871C58.8061 95.3871 59.0467 95.3676 59.2848 95.3325C59.2868 95.3481 59.288 95.3638 59.29 95.3794C59.4693 96.6771 60.1432 97.8276 61.1877 98.6184C62.0489 99.2705 63.0768 99.614 64.1386 99.614C64.3647 99.614 64.5921 99.5985 64.8198 99.5672C66.1176 99.3879 67.2679 98.714 68.0588 97.6697L70.9677 93.8288C72.6008 91.6729 72.1752 88.5904 70.0191 86.9577ZM47.7013 84.1084C47.148 84.1849 46.5975 84.0411 46.152 83.7036C45.7065 83.3663 45.419 82.8754 45.3425 82.3219C45.266 81.7682 45.4098 81.2181 45.7473 80.7724L46.8185 79.3579C47.1558 78.9124 47.6467 78.625 48.2002 78.5485C48.7539 78.4726 49.304 78.6158 49.7497 78.9533C50.1952 79.2906 50.4826 79.7815 50.5591 80.335C50.6356 80.8885 50.4918 81.4386 50.1545 81.8843L49.0831 83.2988C48.7456 83.7443 48.2549 84.0319 47.7013 84.1084ZM51.7299 87.928C51.2844 87.5907 50.9969 87.0998 50.9204 86.5463C50.8439 85.9926 50.9877 85.4425 51.3252 84.9968L52.3964 83.5825C52.3964 83.5825 52.3966 83.5823 52.3966 83.5821L53.3426 82.333C53.7536 81.7904 54.3796 81.5048 55.013 81.5048C55.453 81.5048 55.8965 81.6428 56.2735 81.9284C57.1932 82.6249 57.3749 83.9397 56.6784 84.8595L54.661 87.5233C53.9645 88.443 52.6496 88.6245 51.7299 87.928ZM57.308 92.1523C56.8625 91.815 56.575 91.3241 56.4985 90.7705C56.422 90.2171 56.5657 89.667 56.9028 89.2217C56.903 89.2215 56.903 89.2213 56.9032 89.2211L58.9205 86.5572L59.6525 85.5906C59.9898 85.1451 60.4806 84.8577 61.0343 84.7812C61.5882 84.705 62.1381 84.8485 62.5838 85.186C63.5031 85.8822 63.6848 87.1963 62.9892 88.116L60.2392 91.7473C60.239 91.7475 60.2388 91.7477 60.2388 91.7479C59.542 92.6672 58.2278 92.8489 57.308 92.1523ZM68.7259 92.1309L65.8171 95.9719C65.4798 96.4174 64.9889 96.7048 64.4354 96.7813C63.8813 96.8576 63.3314 96.714 62.8859 96.3767C62.4404 96.0394 62.153 95.5485 62.0765 94.995C62 94.4413 62.1438 93.8912 62.4813 93.4455L65.2308 89.8151C65.2313 89.8146 65.2317 89.8138 65.2323 89.8133L65.3903 89.6046C65.7276 89.1591 66.2185 88.8717 66.7722 88.7952C67.3259 88.7192 67.876 88.8625 68.3217 89.2C69.2408 89.8961 69.4225 91.2113 68.7259 92.1309Z" fill="#283be7"/>
<path d="M117.99 79.2607C117.895 78.4901 117.194 77.9428 116.422 78.0369L105.587 79.3708C104.311 79.5277 103.147 78.618 102.99 77.3432L102.879 76.4411L102.854 76.2323L99.2698 47.1183C99.1937 46.5007 99.3628 45.8906 99.7457 45.3999C100.129 44.9094 100.68 44.5974 101.297 44.5214L112.132 43.1876C112.903 43.0927 113.451 42.3909 113.356 41.6201C113.261 40.8495 112.56 40.3021 111.789 40.3963L100.954 41.7301C98.3055 42.0562 96.3724 44.3521 96.442 46.9668L93.7095 47.3032L85.2484 42.5416C84.0503 41.8666 82.6921 41.5768 81.3205 41.7028C81.3177 41.703 81.3149 41.7037 81.3121 41.7039L78.7653 41.9394C77.9918 42.0108 77.423 42.6958 77.4946 43.4692C77.566 44.2424 78.2498 44.8104 79.0244 44.7399L81.5783 44.5036C82.3775 44.4298 83.1694 44.5989 83.8684 44.9923L92.641 49.9291C92.9155 50.1102 93.2496 50.1931 93.5875 50.1517L96.7611 49.7611L99.0889 68.6691L99.8938 75.2079L94.8319 75.2121C94.4944 75.2123 94.1685 75.3339 93.9137 75.5543L93.522 75.8591L80.8137 64.9062C83.7179 64.0712 86.4863 62.0517 89.0747 58.873C89.565 58.2708 89.4745 57.385 88.8722 56.8945C88.27 56.4042 87.3841 56.4948 86.8937 57.097C84.0006 60.6501 80.9586 62.479 77.8522 62.5326C73.3265 62.6177 70.0012 58.8651 69.9706 58.8301C69.6941 58.5102 69.2887 58.3332 68.8661 58.3435C68.4434 58.3555 68.0488 58.5573 67.7911 58.8923L64.0136 63.8086C62.0233 66.399 58.6327 67.3643 55.5763 66.2097L55.173 66.0572C54.8188 65.9234 54.6744 65.6466 54.6201 65.4934C54.5657 65.3402 54.5027 65.0344 54.6928 64.7071L64.5523 47.7371C65.19 46.6394 66.3255 45.9144 67.5896 45.7974L73.427 45.2576C74.2004 45.1859 74.7693 44.501 74.6977 43.7278C74.626 42.9545 73.9411 42.3858 73.1679 42.4571L67.3305 42.9969C65.162 43.1975 63.2143 44.4414 62.1202 46.3242L52.2608 63.2942C51.7058 64.2497 51.5996 65.3948 51.97 66.436C52.3403 67.4772 53.1456 68.298 54.1791 68.6884L54.5824 68.8408C55.7719 69.2901 56.9976 69.507 58.2069 69.507C61.2919 69.5068 64.2675 68.0942 66.2437 65.5223L69.062 61.8544C70.5723 63.1561 73.3899 65.0839 76.9865 65.3207L95.3511 81.1487C95.6813 81.4331 95.881 81.8291 95.9132 82.2637C95.9455 82.6984 95.8067 83.1197 95.5226 83.4495L94.807 84.2795C93.9079 85.3209 92.3275 85.4366 91.2842 84.5379C91.2259 84.4877 91.1639 84.4445 91.1003 84.4055L86.3329 80.2948C85.7451 79.7878 84.8569 79.8534 84.3496 80.4416C83.8424 81.0298 83.9082 81.9178 84.4964 82.425L88.3705 85.7655L86.6033 87.8163C86.0603 88.4461 85.2432 88.7643 84.4184 88.6674C83.9247 88.6093 83.4625 88.4051 83.0819 88.0768C83.0751 88.071 83.0678 88.0661 83.0611 88.0605L78.6314 84.2411C78.0432 83.7341 77.1554 83.7997 76.648 84.3879C76.1409 84.9761 76.2067 85.8641 76.7949 86.3713L80.18 89.2901L78.4023 91.3546C77.8591 91.9846 77.0401 92.3028 76.2151 92.2057C75.4435 92.1146 74.7449 92.6669 74.6544 93.4381C74.5638 94.2095 75.1154 94.9083 75.8868 94.9989C76.0951 95.0232 76.3029 95.0354 76.5099 95.0354C78.0455 95.0354 79.5153 94.3704 80.533 93.1904L82.4335 90.9834C82.9527 91.2309 83.5109 91.3927 84.0899 91.4608C85.8449 91.667 87.5798 90.9911 88.7337 89.6527L90.6374 87.4434C92.7426 88.442 95.3428 87.963 96.9366 86.1167L97.6532 85.2855C98.4279 84.386 98.8061 83.2387 98.7182 82.055C98.6303 80.8712 98.0863 79.7925 97.1875 79.0183L96.0332 78.0236L100.252 78.0201C100.713 80.4501 102.852 82.2011 105.299 82.2011C105.507 82.2011 105.718 82.1884 105.931 82.1623L116.766 80.8284C117.537 80.7334 118.085 80.0317 117.99 79.2607Z" fill="#283be7"/>
<path d="M109 69.1089C106.726 69.1089 104.875 70.9591 104.875 73.2335C104.875 75.5079 106.726 77.3583 109 77.3583C111.275 77.3583 113.125 75.5079 113.125 73.2335C113.125 70.9591 111.275 69.1089 109 69.1089ZM109 74.5458C108.277 74.5458 107.688 73.9571 107.688 73.2335C107.688 72.51 108.277 71.9214 109 71.9214C109.724 71.9214 110.312 72.51 110.312 73.2335C110.312 73.9571 109.724 74.5458 109 74.5458Z" fill="#283be7"/>
<path d="M34.9729 73.234C34.9729 70.9596 33.1226 69.1094 30.8483 69.1094C28.5739 69.1094 26.7236 70.9596 26.7236 73.234C26.7236 75.5084 28.5739 77.3588 30.8483 77.3588C33.1226 77.3588 34.9729 75.5084 34.9729 73.234ZM29.5361 73.234C29.5361 72.5104 30.1247 71.9219 30.8483 71.9219C31.5718 71.9219 32.1604 72.5104 32.1604 73.234C32.1604 73.9576 31.5718 74.5463 30.8483 74.5463C30.1247 74.5463 29.5361 73.9576 29.5361 73.234Z" fill="#283be7"/>
</g>
<defs>
<clipPath id="clip0">
<rect width="96" height="96" fill="white" transform="translate(22 22)"/>
</clipPath>
</defs>
</svg>