<svg xmlns="http://www.w3.org/2000/svg" width="140" height="140" viewBox="0 0 140 140" fill="none">
<g clip-path="url(#clip0)">
<path d="M100.326 96.8849C99.6283 96.8849 99.0633 97.4501 99.0633 98.1472V109.213C99.0633 109.909 98.4971 110.475 97.801 110.475H42.1985C41.5024 110.475 40.9362 109.909 40.9362 109.213V65.6353C40.9362 64.9383 40.3711 64.373 39.6739 64.373C38.9767 64.373 38.4116 64.9381 38.4116 65.6353V109.213C38.4116 111.301 40.1105 113 42.1983 113H97.8008C99.8887 113 101.588 111.301 101.588 109.213V98.1472C101.588 97.4501 101.023 96.8849 100.326 96.8849V96.8849Z" fill="#283be7"/>
<path d="M101.586 43.8612C101.579 43.5432 101.442 43.2357 101.219 43.0108L85.5779 27.3697C85.3429 27.1352 85.0175 27.001 84.6853 27H42.1993C40.1114 27 38.4126 28.6987 38.4126 30.7867V60.5865C38.4126 61.2836 38.9776 61.8488 39.6749 61.8488C40.3721 61.8488 40.9372 61.2836 40.9372 60.5865V30.7867C40.9372 30.0906 41.5034 29.5244 42.1995 29.5244H83.423V41.3788C83.423 43.4668 85.1217 45.1655 87.2097 45.1655H99.0641V93.0984C99.0641 93.7955 99.6291 94.3607 100.326 94.3607C101.024 94.3607 101.589 93.7955 101.589 93.0984V43.9034C101.589 43.8891 101.587 43.8753 101.586 43.8612V43.8612ZM87.2097 42.6411C86.5136 42.6411 85.9474 42.0749 85.9474 41.3788V31.3096L97.2791 42.6411H87.2097Z" fill="#283be7"/>
<path d="M61.1064 41.4478C60.1144 41.4478 59.269 42.0897 59.0026 43.0456L56.0423 53.67C55.855 54.3415 56.2479 55.0376 56.9194 55.2247C57.5908 55.4125 58.287 55.0193 58.474 54.3476L59.2337 51.6211H62.9794L63.7391 54.3476C63.8947 54.9057 64.4018 55.2714 64.9544 55.2714C65.0664 55.2714 65.1805 55.2563 65.2939 55.2247C65.9652 55.0376 66.3581 54.3415 66.1708 53.67L63.2104 43.0456C62.944 42.0897 62.0986 41.4478 61.1064 41.4478V41.4478ZM59.9372 49.0964L61.1066 44.8997L62.276 49.0964H59.9372Z" fill="#283be7"/>
<path d="M68.2467 39.9233C67.5494 39.9233 66.9844 40.4884 66.9844 41.1856V41.7087H66.4615C65.7643 41.7087 65.1992 42.2737 65.1992 42.971C65.1992 43.668 65.7643 44.2332 66.4615 44.2332H66.9844V44.7563C66.9844 45.4534 67.5494 46.0186 68.2467 46.0186C68.9439 46.0186 69.509 45.4534 69.509 44.7563V44.2332H70.0318C70.7291 44.2332 71.2941 43.6682 71.2941 42.971C71.2941 42.2739 70.7291 41.7087 70.0318 41.7087H69.509V41.1856C69.5088 40.4884 68.9437 39.9233 68.2467 39.9233Z" fill="#283be7"/>
<path d="M63.0072 33.6055C55.2205 33.6055 48.8857 39.9404 48.8857 47.7269C48.8857 55.5135 55.2205 61.8484 63.0072 61.8484C70.7939 61.8484 77.1287 55.5135 77.1287 47.7269C77.1287 42.1615 73.8444 37.0982 68.7618 34.8276C68.1251 34.5436 67.3788 34.8286 67.0944 35.4652C66.81 36.1017 67.0956 36.8481 67.732 37.1325C71.9067 38.9974 74.6043 43.156 74.6043 47.7269C74.6043 54.1217 69.4018 59.324 63.0072 59.324C56.6126 59.324 51.4101 54.1215 51.4101 47.7269C51.4101 41.3324 56.6126 36.1299 63.0072 36.1299C63.7045 36.1299 64.2695 35.5647 64.2695 34.8676C64.2695 34.1705 63.7045 33.6055 63.0072 33.6055V33.6055Z" fill="#283be7"/>
<path d="M48.9443 70.8406L51.5219 73.8351C51.9724 74.3812 52.8643 74.4203 53.3607 73.9144L58.4685 68.9234C58.9672 68.4361 58.9762 67.6371 58.4891 67.1384C58.002 66.6399 57.2025 66.6305 56.7043 67.1177L52.5581 71.169L50.8576 69.1933C50.4028 68.6649 49.6058 68.6056 49.0775 69.0601C48.5492 69.5153 48.4894 70.3123 48.9443 70.8406V70.8406Z" fill="#283be7"/>
<path d="M91.2811 66.2212H64.6905C63.9933 66.2212 63.4282 66.7864 63.4282 67.4835C63.4282 68.1805 63.9933 68.7458 64.6905 68.7458H91.281C91.9782 68.7458 92.5433 68.1805 92.5433 67.4835C92.5433 66.7862 91.9782 66.2212 91.2811 66.2212Z" fill="#283be7"/>
<path d="M64.6905 74.8117H79.8196C80.5168 74.8117 81.0819 74.2465 81.0819 73.5494C81.0819 72.8523 80.5168 72.2871 79.8196 72.2871H64.6905C63.9933 72.2871 63.4282 72.8523 63.4282 73.5494C63.4284 74.2465 63.9934 74.8117 64.6905 74.8117V74.8117Z" fill="#283be7"/>
<path d="M48.9443 84.6417L51.5219 87.6362C51.9724 88.1823 52.8643 88.2214 53.3607 87.7155L58.4685 82.7247C58.9672 82.2374 58.9762 81.4384 58.4891 80.9397C58.002 80.4411 57.2025 80.4317 56.7043 80.919L52.5581 84.9702L50.8576 82.9946C50.4028 82.4663 49.6058 82.4067 49.0775 82.8614C48.5492 83.3163 48.4894 84.1133 48.9443 84.6417V84.6417Z" fill="#283be7"/>
<path d="M91.2811 80.022H64.6905C63.9933 80.022 63.4282 80.5872 63.4282 81.2843C63.4282 81.9813 63.9933 82.5465 64.6905 82.5465H91.281C91.9782 82.5465 92.5433 81.9813 92.5433 81.2843C92.5433 80.587 91.9782 80.022 91.2811 80.022Z" fill="#283be7"/>
<path d="M64.6905 88.6125H79.8196C80.5168 88.6125 81.0819 88.0472 81.0819 87.3502C81.0819 86.6531 80.5168 86.0879 79.8196 86.0879H64.6905C63.9933 86.0879 63.4282 86.6531 63.4282 87.3502C63.4284 88.0472 63.9934 88.6125 64.6905 88.6125V88.6125Z" fill="#283be7"/>
<path d="M48.9443 98.4426L51.5219 101.437C51.9724 101.983 52.8643 102.022 53.3607 101.516L58.4685 96.5255C58.9672 96.0382 58.9762 95.2391 58.4891 94.7404C58.002 94.2419 57.2025 94.2325 56.7043 94.7198L52.5581 98.771L50.8576 96.7954C50.4028 96.2671 49.6058 96.2073 49.0775 96.6622C48.5492 97.1172 48.4894 97.9142 48.9443 98.4426V98.4426Z" fill="#283be7"/>
<path d="M92.5433 95.085C92.5433 94.388 91.9782 93.8228 91.281 93.8228H64.6905C63.9933 93.8228 63.4282 94.388 63.4282 95.085C63.4282 95.7821 63.9933 96.3473 64.6905 96.3473H91.281C91.9782 96.3473 92.5433 95.7821 92.5433 95.085Z" fill="#283be7"/>
<path d="M64.6905 99.8892C63.9933 99.8892 63.4282 100.454 63.4282 101.151C63.4282 101.849 63.9933 102.414 64.6905 102.414H79.8196C80.5168 102.414 81.0819 101.849 81.0819 101.151C81.0819 100.454 80.5168 99.8892 79.8196 99.8892H64.6905Z" fill="#283be7"/>
</g>
<defs>
<clipPath id="clip0">
<rect width="86" height="86" fill="white" transform="translate(27 27)"/>
</clipPath>
</defs>
</svg>