<svg xmlns="http://www.w3.org/2000/svg" width="80" height="80" viewBox="0 0 80 80" fill="none">
<path d="M39.7776 38.4445C45.7776 38.4445 50.4442 33.5556 50.4442 27.5556C50.4442 21.5556 45.5553 16.8889 39.5553 16.8889C33.5553 16.8889 28.8887 21.7778 28.8887 27.5556C28.8887 33.5556 33.7776 38.4445 39.7776 38.4445ZM39.5553 21.3334C39.7776 21.3334 39.7776 21.3334 39.5553 21.3334C43.1109 21.3334 45.9998 24.2222 45.9998 27.7778C45.9998 31.3334 43.1109 34 39.5553 34C35.9998 34 33.3331 31.1111 33.3331 27.7778C33.3331 24.2222 36.222 21.3334 39.5553 21.3334V21.3334Z" fill="#3D5AFE"/>
<path d="M72.6673 37.1111C68.4451 33.3333 62.8895 31.3333 57.1118 31.5555H55.334C54.8895 33.3333 54.2229 34.8889 53.334 36.2222C54.6673 36 55.7784 36 57.1118 36C61.334 35.7778 65.5562 37.1111 68.8895 39.5555V55.5555H73.334V37.7778L72.6673 37.1111Z" fill="#3D5AFE"/>
<path d="M51.9998 17.3334C53.1109 14.6668 56.222 13.3334 59.1109 14.4446C61.7776 15.5557 63.1109 18.6668 61.9998 21.5557C61.1109 23.5557 59.1109 24.889 57.1109 24.889C56.6665 24.889 55.9998 24.889 55.5553 24.6668C55.7776 25.7779 55.7776 26.889 55.7776 27.7779V29.1112C56.222 29.1112 56.6665 29.3334 57.1109 29.3334C62.6665 29.3334 67.1109 24.889 67.1109 19.5557C67.1109 14.0001 62.6664 9.55566 57.3331 9.55566C53.7776 9.55566 50.6664 11.3334 48.8887 14.4446C49.9998 15.1112 51.1109 16.0001 51.9998 17.3334V17.3334Z" fill="#3D5AFE"/>
<path d="M26.666 36.4444C25.7771 35.1111 25.1105 33.5555 24.666 31.7777H22.8882C17.1105 31.5555 11.5549 33.5555 7.33268 37.1111L6.66602 37.7777V55.5555H11.1105V39.5555C14.666 37.1111 18.666 35.7777 22.8882 36C24.2216 36 25.5549 36.2222 26.666 36.4444Z" fill="#3D5AFE"/>
<path d="M22.8886 29.1112C23.333 29.1112 23.7775 29.1112 24.2219 28.889V27.5556C24.2219 26.4445 24.2219 25.3334 24.4441 24.4445C23.9997 24.6668 23.333 24.6668 22.8886 24.6668C19.9997 24.6668 17.5553 22.2223 17.5553 19.3334C17.5553 16.4445 19.9997 14.0001 22.8886 14.0001C25.1108 14.0001 27.1108 15.3334 27.9997 17.3334C28.8886 16.2223 30.2219 15.1112 31.333 14.2223C28.4442 9.55564 22.4441 8.00008 17.7775 10.889C13.1108 13.7779 11.5553 19.7779 14.4441 24.4445C16.2219 27.3334 19.333 29.1112 22.8886 29.1112V29.1112Z" fill="#3D5AFE"/>
<path d="M58.0004 50.4444L57.556 49.7777C53.1115 44.8888 46.8893 41.9999 40.2227 42.2222C33.556 41.9999 27.1115 44.8888 22.6671 49.7777L22.2227 50.4444V67.3333C22.2227 69.3333 23.7782 71.1111 26.0004 71.1111H54.4449C56.4449 71.1111 58.2227 69.3333 58.2227 67.3333V50.4444H58.0004ZM53.556 66.6666H26.6671V51.9999C30.2227 48.4444 35.1115 46.6666 40.2227 46.6666C45.1115 46.4444 50.0004 48.4444 53.556 51.9999V66.6666Z" fill="#3D5AFE"/>
</svg>