<svg xmlns="http://www.w3.org/2000/svg" width="36" height="36" viewBox="0 0 36 36" fill="none">
<path d="M32.3685 10.2822C32.5785 9.58474 32.3685 9.07324 31.3755 9.07324H28.086C27.249 9.07324 26.8665 9.51574 26.6565 10.0017C26.6565 10.0017 24.984 14.0802 22.614 16.7247C21.849 17.4942 21.4995 17.7372 21.0825 17.7372C20.874 17.7372 20.571 17.4942 20.571 16.7967V10.2822C20.571 9.44524 20.3295 9.07324 19.632 9.07324H14.463C13.941 9.07324 13.626 9.46024 13.626 9.82924C13.626 10.6212 14.811 10.8042 14.9325 13.0362V17.8782C14.9325 18.9387 14.742 19.1322 14.322 19.1322C13.2075 19.1322 10.4955 15.0387 8.886 10.3527C8.5725 9.44224 8.256 9.07474 7.416 9.07474H4.128C3.1875 9.07474 3 9.51724 3 10.0032C3 10.8762 4.1145 15.1962 8.1915 20.9097C10.9095 24.8112 14.736 26.9262 18.222 26.9262C20.3115 26.9262 20.5695 26.4567 20.5695 25.6467V22.6977C20.5695 21.7587 20.769 21.5697 21.4305 21.5697C21.9165 21.5697 22.7535 21.8157 24.705 23.6952C26.934 25.9242 27.303 26.9247 28.5555 26.9247H31.8435C32.7825 26.9247 33.252 26.4552 32.982 25.5282C32.6865 24.6057 31.6215 23.2632 30.2085 21.6747C29.4405 20.7687 28.293 19.7937 27.9435 19.3062C27.456 18.6777 27.597 18.4002 27.9435 17.8422C27.945 17.8437 31.9515 12.2007 32.3685 10.2822V10.2822Z" fill="#949494"/>
</svg>