<svg xmlns="http://www.w3.org/2000/svg" width="36" height="36" viewBox="0 0 36 36" fill="none">
<path d="M32.39 10.8045C32.2191 10.1706 31.8852 9.59252 31.4215 9.12776C30.9578 8.66301 30.3805 8.3278 29.747 8.15551C27.398 7.51051 18.0005 7.50001 18.0005 7.50001C18.0005 7.50001 8.60449 7.48951 6.25399 8.10601C5.62088 8.28623 5.04473 8.62618 4.58084 9.09321C4.11696 9.56025 3.78092 10.1387 3.60499 10.773C2.98549 13.122 2.97949 17.994 2.97949 17.994C2.97949 17.994 2.97349 22.89 3.58849 25.215C3.93349 26.5005 4.94599 27.516 6.23299 27.8625C8.60599 28.5075 17.978 28.518 17.978 28.518C17.978 28.518 27.3755 28.5285 29.7245 27.9135C30.3582 27.7415 30.9361 27.4071 31.401 26.9433C31.8658 26.4795 32.2016 25.9024 32.375 25.269C32.996 22.9215 33.0005 18.051 33.0005 18.051C33.0005 18.051 33.0305 13.1535 32.39 10.8045V10.8045ZM14.9945 22.5075L15.002 13.5075L22.8125 18.015L14.9945 22.5075V22.5075Z" fill="#949494"/>
</svg>