<svg xmlns="http://www.w3.org/2000/svg" width="30" height="30" viewBox="0 0 30 30" fill="none">
<path d="M15.1214 20.1214C14.7598 20.1221 14.4094 19.9962 14.1309 19.7655L4.84521 12.0274C4.52916 11.7647 4.33041 11.3872 4.29268 10.978C4.25495 10.5687 4.38133 10.1613 4.64402 9.84521C4.90671 9.52916 5.2842 9.33041 5.69343 9.29268C6.10266 9.25495 6.51012 9.38133 6.82617 9.64402L15.1214 16.5774L23.4166 9.89164C23.5749 9.76309 23.7571 9.66709 23.9526 9.60916C24.1481 9.55123 24.3532 9.53251 24.556 9.55408C24.7587 9.57566 24.9553 9.63709 25.1342 9.73486C25.3132 9.83263 25.4711 9.9648 25.5988 10.1238C25.7405 10.2829 25.8479 10.4696 25.9141 10.6721C25.9803 10.8747 26.004 11.0887 25.9836 11.3008C25.9633 11.513 25.8994 11.7186 25.7959 11.9049C25.6924 12.0911 25.5515 12.254 25.3821 12.3833L16.0964 19.8583C15.81 20.0526 15.4667 20.1452 15.1214 20.1214V20.1214Z" fill="#161A41"/>
</svg>