<svg xmlns="http://www.w3.org/2000/svg" width="80" height="80" viewBox="0 0 80 80" fill="none">
<path d="M23.3333 6.66669H26.6667C27.5507 6.66669 28.3986 7.01788 29.0237 7.643C29.6488 8.26812 30 9.11597 30 10V13.3334H46.6667V10C46.6667 9.11597 47.0179 8.26812 47.643 7.643C48.2681 7.01788 49.1159 6.66669 50 6.66669H53.3333C54.2174 6.66669 55.0652 7.01788 55.6904 7.643C56.3155 8.26812 56.6667 9.11597 56.6667 10V13.3334C59.3188 13.3334 61.8624 14.3869 63.7377 16.2623C65.6131 18.1376 66.6667 20.6812 66.6667 23.3334V60C66.6667 62.6522 65.6131 65.1957 63.7377 67.0711C61.8624 68.9465 59.3188 70 56.6667 70H20C17.3478 70 14.8043 68.9465 12.9289 67.0711C11.0536 65.1957 10 62.6522 10 60V23.3334C10 20.6812 11.0536 18.1376 12.9289 16.2623C14.8043 14.3869 17.3478 13.3334 20 13.3334V10C20 9.11597 20.3512 8.26812 20.9763 7.643C21.6014 7.01788 22.4493 6.66669 23.3333 6.66669ZM50 13.3334H53.3333V10H50V13.3334ZM26.6667 13.3334V10H23.3333V13.3334H26.6667ZM20 16.6667C18.2319 16.6667 16.5362 17.3691 15.286 18.6193C14.0357 19.8696 13.3333 21.5652 13.3333 23.3334V26.6667H63.3333V23.3334C63.3333 21.5652 62.631 19.8696 61.3807 18.6193C60.1305 17.3691 58.4348 16.6667 56.6667 16.6667H20ZM13.3333 60C13.3333 61.7681 14.0357 63.4638 15.286 64.7141C16.5362 65.9643 18.2319 66.6667 20 66.6667H56.6667C58.4348 66.6667 60.1305 65.9643 61.3807 64.7141C62.631 63.4638 63.3333 61.7681 63.3333 60V30H13.3333V60ZM40 43.3334H56.6667V60H40V43.3334ZM43.3333 46.6667V56.6667H53.3333V46.6667H43.3333Z" fill="#3D5AFE"/>
</svg>