<svg xmlns="http://www.w3.org/2000/svg" width="80" height="80" viewBox="0 0 80 80" fill="none">
<path fill-rule="evenodd" clip-rule="evenodd" d="M39.7264 8.36624C40.134 8.20978 40.5853 8.21132 40.9918 8.37055L75.6383 21.942C76.2984 22.2005 76.7372 22.8318 76.7497 23.5406C76.7622 24.2494 76.3458 24.8957 75.6953 25.1774L68.2652 28.3942V49.2857C68.2652 50.0559 67.7616 50.7356 67.0247 50.9599C64.2412 51.8071 61.6057 52.5391 59.0732 53.1543V58.901L63.8614 69.2661C64.1117 69.808 64.0686 70.4401 63.747 70.9429C63.4254 71.4458 62.8696 71.75 62.2727 71.75H52.3737C51.7768 71.75 51.2211 71.4458 50.8995 70.9429C50.5779 70.4401 50.5347 69.808 50.7851 69.2661L55.5732 58.901V53.9428C50.3923 55.0133 45.5791 55.5566 40.7065 55.5577C32.4595 55.5595 24.1479 54.0081 13.7026 50.9659C12.9556 50.7483 12.4419 50.0637 12.4419 49.2857V28.6299L4.31648 25.1824C3.65973 24.9038 3.23788 24.2543 3.25027 23.541C3.26266 22.8277 3.70681 22.1933 4.37284 21.9377L39.7264 8.36624ZM15.9419 30.1149V47.9683C25.6182 50.7178 33.2403 52.0594 40.7057 52.0577C45.5171 52.0566 50.3038 51.4975 55.5732 50.3659V33.8891L41.0488 40.1774C40.6093 40.3677 40.1109 40.3695 39.67 40.1824L15.9419 30.1149ZM57.1195 29.4057L41.0888 21.9834C40.2118 21.5773 39.1716 21.9591 38.7655 22.8362C38.3594 23.7132 38.7412 24.7534 39.6183 25.1595L52.8146 31.2695L40.3466 36.6675L9.67172 23.6526L40.3471 11.877L70.4085 23.6523L57.1195 29.4057ZM59.0732 32.3738V49.5491C60.8991 49.0911 62.7902 48.5696 64.7652 47.9842V29.9095L59.0732 32.3738ZM57.3232 63.4587L55.1099 68.25H59.5366L57.3232 63.4587Z" fill="#3D5AFE"/>
</svg>