<svg xmlns="http://www.w3.org/2000/svg" width="122" height="40" viewBox="0 0 122 40" fill="none">
<path d="M25.6086 14.1707L21.0156 13.1694C20.1987 12.9925 19.6123 12.2388 19.6123 11.3649V3.98759C19.6123 3.3967 20.2123 3.01457 20.7139 3.28701L25.3916 5.81333C26.0628 6.17423 26.4831 6.89604 26.4831 7.68507V13.4312C26.4797 13.9089 26.0594 14.2662 25.6086 14.1707Z" fill="#03BD64"/>
<path d="M30.839 15.3313L28.2561 14.7899C27.6629 14.6661 27.2324 14.1212 27.2324 13.4879V7.75234C27.2324 7.33836 27.6527 7.06945 28.0086 7.25698L30.7543 8.71828C31.1678 8.93765 31.4288 9.38347 31.4288 9.86822V14.8253C31.4288 15.1508 31.1441 15.395 30.839 15.3313Z" fill="#EBEBEB"/>
<path d="M34.2963 16.1061L32.5438 15.7169C32.1981 15.6391 31.9473 15.3206 31.9473 14.9491V10.0238C31.9473 9.7054 32.2727 9.50372 32.5405 9.65233L34.0929 10.5121C34.5234 10.7492 34.7946 11.2198 34.7946 11.7293V15.6886C34.7946 15.9575 34.5539 16.1627 34.2963 16.1061Z" fill="#EBEBEB"/>
<path d="M25.4599 23.5895L20.9754 24.2299C20.2534 24.3325 19.6094 23.7487 19.6094 22.988V15.5789C19.6094 14.8819 20.206 14.3511 20.8669 14.4608L25.3548 15.2145C26.0022 15.3241 26.4802 15.908 26.4802 16.5944V22.3688C26.4802 22.9845 26.0463 23.5046 25.4599 23.5895Z" fill="#03BD64"/>
<path d="M30.7475 22.8253L28.2019 23.1791C27.69 23.2499 27.2324 22.8359 27.2324 22.2946V16.5449C27.2324 16.0743 27.6358 15.7169 28.0798 15.7912L30.7271 16.2371C31.1305 16.3043 31.4288 16.6687 31.4288 17.0969V22.0115C31.4288 22.4219 31.1373 22.7687 30.7475 22.8253Z" fill="#03BD64"/>
<path d="M34.2823 22.3158L32.6925 22.5634C32.3027 22.6236 31.9502 22.3087 31.9502 21.8947V17.0827C31.9502 16.7289 32.2587 16.4635 32.5908 16.5272L34.1941 16.8385C34.5433 16.9058 34.7975 17.2242 34.7975 17.5957V21.693C34.7941 22.0044 34.5772 22.2698 34.2823 22.3158Z" fill="#03BD64"/>
<path d="M25.4904 32.9871L20.7076 35.3259C20.1958 35.5771 19.6094 35.1879 19.6094 34.597V27.2233C19.6094 26.3564 20.2093 25.6169 21.0296 25.4719L25.5853 24.6757C26.0531 24.5944 26.4802 24.9694 26.4802 25.4683V31.3595C26.4802 32.0565 26.0938 32.6899 25.4904 32.9871Z" fill="#03BD64"/>
<path d="M30.8388 30.2556L28.022 31.6815C27.7 31.8443 27.3271 31.6001 27.3271 31.2286V25.3091C27.3271 24.7784 27.6898 24.3255 28.1915 24.2335L30.9337 23.724C31.1913 23.6744 31.4286 23.8832 31.4286 24.1592V29.2755C31.4286 29.6895 31.1981 30.0716 30.8388 30.2556Z" fill="#03BD64"/>
<path d="M34.3535 28.5183L32.5908 29.4277C32.2959 29.5798 31.9502 29.3569 31.9502 29.0137V24.1698C31.9502 23.7629 32.2315 23.4162 32.6146 23.3489L34.2348 23.0623C34.5297 23.0093 34.7975 23.2463 34.7975 23.5577V27.7753C34.7941 28.0902 34.6246 28.3768 34.3535 28.5183Z" fill="#03BD64"/>
<path d="M12.5923 14.1707L17.1853 13.1694C18.0022 12.9925 18.5886 12.2388 18.5886 11.3649V3.98759C18.5886 3.3967 17.9886 3.01457 17.487 3.28701L12.8092 5.81333C12.1381 6.17423 11.7178 6.89604 11.7178 7.68507V13.4312C11.7246 13.9089 12.1449 14.2662 12.5923 14.1707Z" fill="#1482DE"/>
<path d="M7.3618 15.3313L9.9481 14.7899C10.5413 14.6661 10.9718 14.1212 10.9718 13.4879V7.75234C10.9718 7.33836 10.5515 7.06945 10.1955 7.25698L7.44993 8.71828C7.03639 8.93765 6.77539 9.38347 6.77539 9.86822V14.8253C6.77539 15.1508 7.05673 15.395 7.3618 15.3313Z" fill="#EBEBEB"/>
<path d="M3.90453 16.1061L5.65697 15.7169C6.00272 15.6391 6.25355 15.3206 6.25355 14.9491V10.0238C6.25355 9.7054 5.92815 9.50372 5.66036 9.65233L4.10791 10.5086C3.67742 10.7457 3.40625 11.2162 3.40625 11.7257V15.6851C3.40625 15.9575 3.6503 16.1627 3.90453 16.1061Z" fill="#1482DE"/>
<path d="M12.7415 23.5895L17.226 24.2299C17.948 24.3325 18.592 23.7487 18.592 22.988V15.5789C18.592 14.8819 17.9954 14.3511 17.3345 14.4608L12.85 15.2145C12.2025 15.3241 11.7246 15.908 11.7246 16.5944V22.3688C11.7246 22.9845 12.1585 23.5046 12.7415 23.5895Z" fill="#1482DE"/>
<path d="M7.45671 22.8253L10.0023 23.1791C10.5142 23.2499 10.9718 22.8359 10.9718 22.2946V16.5449C10.9718 16.0743 10.5684 15.7169 10.1244 15.7912L7.47705 16.2371C7.07368 16.3043 6.77539 16.6687 6.77539 17.0969V22.0115C6.77539 22.4219 7.0669 22.7687 7.45671 22.8253Z" fill="#1482DE"/>
<path d="M3.92148 22.3158L5.51122 22.5634C5.90103 22.6236 6.25355 22.3087 6.25355 21.8947V17.0827C6.25355 16.7289 5.94509 16.4635 5.61291 16.5272L4.00961 16.8385C3.66047 16.9058 3.40625 17.2242 3.40625 17.5957V21.693C3.40625 22.0044 3.62658 22.2698 3.92148 22.3158Z" fill="#1482DE"/>
<path d="M12.7144 32.9871L17.4972 35.3259C18.009 35.5771 18.5954 35.1879 18.5954 34.597V27.2233C18.5954 26.3564 17.9954 25.6169 17.1752 25.4719L12.6195 24.6757C12.1517 24.5944 11.7246 24.9694 11.7246 25.4683V31.3595C11.7246 32.0565 12.111 32.6899 12.7144 32.9871Z" fill="#1482DE"/>
<path d="M7.36519 30.2556L10.182 31.6815C10.504 31.8443 10.8769 31.6001 10.8769 31.2286V25.3091C10.8769 24.7784 10.5142 24.3255 10.0125 24.2335L7.27028 23.724C7.01267 23.6744 6.77539 23.8832 6.77539 24.1592V29.2755C6.77539 29.6895 7.0025 30.0716 7.36519 30.2556Z" fill="#EBEBEB"/>
<path d="M3.85029 28.5183L5.61291 29.4277C5.90781 29.5798 6.25355 29.3569 6.25355 29.0137V24.1698C6.25355 23.7629 5.97221 23.4162 5.58918 23.3489L3.96893 23.0623C3.67403 23.0093 3.40625 23.2463 3.40625 23.5577V27.7753C3.40625 28.0902 3.57912 28.3768 3.85029 28.5183Z" fill="#EBEBEB"/>
<path d="M51.7936 23.5221H49.8954V25.7725H48.2142V23.5221H39.1367V20.6738L47.2685 14.0467H49.8988V21.9335H51.7936V23.5221V23.5221ZM48.2142 21.9335V15.6354L47.821 15.6283L40.8146 21.3603L40.818 21.9335H48.2142Z" fill="#1482DE"/>
<path d="M65.9417 22.3476C65.9417 24.6263 64.7486 25.7656 62.3657 25.7656H53.3594V14.0433H61.9792C63.0707 14.0433 63.9249 14.3087 64.535 14.8394C65.2062 15.4091 65.5418 16.2547 65.5418 17.3728C65.5418 18.5511 65.1147 19.3083 64.2639 19.6373C64.8198 19.8178 65.2401 20.1681 65.5282 20.6882C65.8028 21.1552 65.9417 21.7107 65.9417 22.3476ZM63.8605 17.3693C63.8605 16.2087 63.23 15.6285 61.9691 15.6285H55.0372V18.9863H61.9691C62.5894 18.9863 63.0436 18.8766 63.3283 18.6572C63.6842 18.4095 63.8605 17.9814 63.8605 17.3693ZM64.2605 22.3547C64.2605 21.7673 64.0842 21.3074 63.7385 20.9748C63.3893 20.6422 62.9283 20.4759 62.3555 20.4759H55.0406V24.1769H62.3555C63.6266 24.1769 64.2605 23.5719 64.2605 22.3547Z" fill="#161A41"/>
<path d="M81.5582 25.7691H79.877V22.889C79.877 22.4608 79.6702 22.1141 79.26 21.8558C78.9041 21.6364 78.5076 21.5267 78.0669 21.5267H70.1656V25.7691H68.4844V14.0433H78.5686C79.5753 14.0433 80.3346 14.4184 80.8532 15.1685C81.321 15.8266 81.5582 16.7041 81.5582 17.7939C81.5582 18.7634 81.4091 19.4887 81.1142 19.9699C80.904 20.299 80.5685 20.5714 80.1075 20.7802C81.0735 21.2118 81.5582 21.916 81.5582 22.896V25.7691V25.7691ZM79.877 17.7833C79.877 17.0155 79.7244 16.467 79.4261 16.1309C79.1245 15.7983 78.6194 15.6285 77.911 15.6285H70.1656V19.931H77.9076C78.616 19.931 79.1278 19.7505 79.4431 19.3932C79.7346 19.0677 79.877 18.5298 79.877 17.7833Z" fill="#161A41"/>
<path d="M97.7469 25.7691H95.8454L94.5268 23.1614H86.5137L85.1951 25.7691H83.2969L89.1983 14.0433H91.8151L97.7469 25.7691ZM93.7946 21.6152L90.7338 15.4374L90.327 15.4409L87.2594 21.6152H93.7946Z" fill="#161A41"/>
<path d="M101.021 25.7691H99.3398V14.0433H101.021V25.7691Z" fill="#161A41"/>
<path d="M117.472 25.7692H114.943L105.391 15.5719V25.7692H103.71V14.0257H106.154L115.791 24.315V14.0257H117.472V25.7692Z" fill="#161A41"/>
</svg>