<svg xmlns="http://www.w3.org/2000/svg" width="80" height="80" viewBox="0 0 80 80" fill="none">
<path d="M7 46.87V50.22C7 50.9601 7.59994 51.56 8.34 51.56H27.1M7 46.87V14.04C7 13.2999 7.59994 12.7 8.34 12.7H33.13M7 46.87H74M74 46.87V14.04C74 13.2999 73.4001 12.7 72.66 12.7H47.87M74 46.87V50.22C74 50.9601 73.4001 51.56 72.66 51.56H53.9M27.1 51.56L19.1114 71.8389C18.765 72.7181 19.4131 73.67 20.3581 73.67H24.8729C25.4107 73.67 25.8964 73.3484 26.1065 72.8533L31.7291 59.6M27.1 51.56H35.14M35.14 51.56H46.53M35.14 51.56L31.7291 59.6M46.53 51.56H53.9M46.53 51.56L49.9409 59.6M53.9 51.56L62.4895 71.8067C62.8644 72.6903 62.2158 73.67 61.2559 73.67H56.7971C56.2593 73.67 55.7736 73.3484 55.5635 72.8533L49.9409 59.6M49.9409 59.6H31.7291M33.13 12.7L34.2546 7.0772C34.3798 6.45086 34.9298 6 35.5685 6H45.4315C46.0702 6 46.6202 6.45086 46.7454 7.0772L47.87 12.7M33.13 12.7H47.87" stroke="#3D5AFE" stroke-width="3"/>
</svg>